<?xml version="1.0" encoding="UTF-8" standalone="no"?>
<!-- Generator: Adobe Illustrator 14.0.0, SVG Export Plug-In . SVG Version: 6.00 Build 43363)  -->

<svg
   xmlns:dc="http://purl.org/dc/elements/1.1/"
   xmlns:cc="http://creativecommons.org/ns#"
   xmlns:rdf="http://www.w3.org/1999/02/22-rdf-syntax-ns#"
   xmlns:svg="http://www.w3.org/2000/svg"
   xmlns="http://www.w3.org/2000/svg"
   xmlns:sodipodi="http://sodipodi.sourceforge.net/DTD/sodipodi-0.dtd"
   xmlns:inkscape="http://www.inkscape.org/namespaces/inkscape"
   version="1.1"
   id="Layer_1"
   x="0px"
   y="0px"
   width="250.18343"
   height="444.54849"
   viewBox="0 0 309.17667 550.836"
   enable-background="new 0 0 640 800"
   xml:space="preserve"
   inkscape:version="0.48.1 r9760"
   sodipodi:docname="map_region1.svg"><metadata
   id="metadata601"><rdf:RDF><cc:Work
       rdf:about=""><dc:format>image/svg+xml</dc:format><dc:type
         rdf:resource="http://purl.org/dc/dcmitype/StillImage" /><dc:title /></cc:Work></rdf:RDF></metadata><defs
   id="defs599"><inkscape:perspective
     sodipodi:type="inkscape:persp3d"
     inkscape:vp_x="0 : 400 : 1"
     inkscape:vp_y="0 : 1000 : 0"
     inkscape:vp_z="640 : 400 : 1"
     inkscape:persp3d-origin="320 : 266.66667 : 1"
     id="perspective603" /></defs><sodipodi:namedview
   pagecolor="#ffffff"
   bordercolor="#666666"
   borderopacity="1"
   objecttolerance="10"
   gridtolerance="10"
   guidetolerance="10"
   inkscape:pageopacity="0"
   inkscape:pageshadow="2"
   inkscape:window-width="1197"
   inkscape:window-height="743"
   id="namedview597"
   showgrid="false"
   inkscape:zoom="1.0606602"
   inkscape:cx="-151.6519"
   inkscape:cy="45.726881"
   inkscape:window-x="0"
   inkscape:window-y="27"
   inkscape:window-maximized="0"
   inkscape:current-layer="Layer_1"
   fit-margin-top="0"
   fit-margin-left="0"
   fit-margin-right="0"
   fit-margin-bottom="0" />
<path
   style="fill:#ae42ba"
   d="m 227.41595,75.2103 c -0.72638,0 -1.93701,0.32283 -3.63189,0.80709 -1.77559,0.64566 -2.89703,1.22071 -3.37967,1.86638 0.16142,0.0807 0.30266,0.24213 0.7062,0.40354 0.40354,0.0807 0.64728,0.16647 0.80708,0.32788 l 0,1.84117 c -0.96688,-0.16142 -1.85629,-0.0656 -2.8248,0.17655 -1.04921,0.16141 -1.85629,0.47416 -2.42125,0.95841 0,0.24213 0.16141,0.57001 0.40354,1.13497 0.24374,0.48425 0.40354,0.88779 0.40354,1.21062 0,0.40355 -0.23365,0.72134 -0.55487,0.88275 -0.56496,0.32284 -1.04074,0.49434 -1.36196,0.65576 -1.21385,0.56496 -1.86638,1.53346 -1.86638,2.8248 0.0807,1.45276 -0.41202,2.2548 -1.46284,2.49692 -1.61418,-0.0807 -2.8248,-0.0807 -3.63189,0 -2.33893,0.32284 -4.68776,1.12992 -6.78456,2.42126 -2.66339,1.69488 -3.87402,3.46542 -3.63189,5.32172 -0.88941,-0.16142 -1.52337,-0.3985 -1.7655,-0.47921 -0.56496,-0.24212 -0.88275,-0.57 -0.88275,-1.13496 0,-0.24213 0.1598,-0.81213 0.40354,-1.53851 0.24213,-0.80708 0.32788,-1.29133 0.32788,-1.61417 0,-1.61417 -1.2308,-2.72391 -3.73277,-3.531 -2.74409,-0.64567 -4.25738,-1.06939 -4.74163,-1.31151 -1.8563,-1.04921 -3.56974,-2.01267 -4.9434,-2.90047 -2.34055,-1.29133 -3.93454,-2.00762 -4.74163,-2.16904 l -0.32788,0 c -1.29295,0 -2.90046,0.88275 -4.91817,2.90046 -1.12831,1.12992 -1.77559,1.8563 -2.01772,2.01772 -0.72476,0.64567 -1.31151,0.88275 -1.71506,0.88275 -0.32283,0 -0.7062,-0.16646 -1.51328,-0.73142 -0.72476,-0.48425 -1.30143,-0.63054 -1.86639,-0.63054 -0.32283,0 -0.64062,-0.005 -0.88275,0.0756 -0.15899,0.16141 -0.3985,0.25221 -0.4792,0.25221 -0.0807,1.45275 -0.58514,2.64321 -1.31152,3.531 -0.72638,0.88779 -1.67632,1.61922 -3.12746,2.34559 -0.9685,0.56496 -2.03284,1.53851 -3.00135,3.15268 -1.21062,1.694885 -2.00843,2.82986 -2.57258,3.15269 -1.12992,0.88779 -3.64702,2.66338 -7.44032,5.24606 -2.50278,1.61417 -4.35827,3.13754 -5.6496,4.5903 -0.8878,-0.0807 -1.93701,-0.32284 -3.22835,-0.80709 -1.53346,-0.48425 -2.49692,-1.21063 -2.90046,-2.01771 -0.32283,-0.0807 -0.73142,-0.0858 -1.13496,-0.32788 -0.56496,-0.24213 -1.04417,-0.30266 -1.2863,-0.30266 -0.80708,0 -1.45275,0.14124 -2.01771,0.7062 -0.56496,0.40354 -0.73142,1.04921 -0.73142,1.61417 0,0.64567 0.0857,0.97355 0.32788,1.13497 0.16141,0.0807 0.39849,0.24717 0.88275,0.32788 0.88779,0.0807 1.31151,0.80708 1.31151,2.01771 0.0807,0.88779 0.24213,1.53346 0.40354,2.01771 0.32284,0.48426 0.62549,0.81718 1.10975,1.0593 2.34054,0.80709 3.63693,1.36196 3.95976,1.7655 0.56496,0.48426 0.88275,1.93197 0.88275,4.1111 0,0.24212 -0.23204,0.81717 -0.55487,1.86638 -0.32284,0.96851 -0.55487,1.84621 -0.55487,2.57259 0,1.04921 0.0807,2.03285 0.40354,3.00135 0.16142,0.64567 0.38337,1.19549 0.7062,1.43762 0.16142,0.32283 0.4893,0.40354 0.73142,0.40354 0.40354,0 0.82222,-0.40858 1.38718,-1.13496 0.0807,-0.16142 0.64567,-0.9685 1.61417,-2.42126 1.45276,-2.34055 2.73824,-3.45533 3.70755,-3.45533 3.22834,0 5.97163,0.4792 8.07086,1.68983 1.21063,0.56496 2.02356,0.97355 2.34559,1.13497 0.9685,0.40354 2.01772,0.4792 3.22834,0.4792 1.04922,0 1.53347,0.81718 1.61418,2.26993 0.0823,0.64567 0.0621,1.93701 -0.10089,4.03543 -0.0823,0.9685 0.41868,1.77054 1.38718,2.49692 1.04921,0.64567 1.53851,1.37205 1.53851,2.01772 l 0,0.0756 c 0,0.56496 -0.16808,1.12488 -0.73143,1.68984 -0.0823,0.16141 -0.16989,0.24212 -0.25221,0.40354 -0.32122,0.24212 -0.64567,0.40354 -0.80709,0.40354 -1.04921,0 -1.94548,-0.15133 -2.67347,-0.55487 -0.9685,-0.56496 -1.77054,-0.98364 -2.49692,-1.38718 l -1.94205,0 c 0,0.16142 0.25222,0.6608 0.65576,1.38718 l 0.47921,1.03408 c 0,0.56496 -0.39689,1.38718 -1.2863,2.59781 l -2.97613,4.3633 c -2.90631,4.43897 -4.28764,8.7014 -4.28764,12.73682 0,0.8878 0.40354,2.02276 1.21063,3.55623 0.72638,1.53346 1.0593,2.34559 1.0593,2.34559 0,0.40354 -0.0866,0.71124 -0.32788,1.03408 -0.16142,0.16141 -0.40859,0.49938 -0.73142,0.98363 -0.80709,0.8878 -1.21063,2.09843 -1.21063,3.63189 0,1.937 0.4901,3.1325 1.53851,3.45533 0.56496,0.32284 0.89788,0.49939 1.0593,0.5801 0.24212,0.32283 0.40354,0.88779 0.40354,1.61417 0,0.32283 -0.24798,0.81213 -0.73142,1.53851 -0.48506,0.72637 -0.97778,1.19549 -1.46284,1.43762 0.0815,0.16141 0.17655,0.41363 0.17655,0.65575 0.56496,1.77559 0.86842,3.79835 1.10974,5.97748 0,0.93893 0.0984,2.33544 0.17655,4.1111 l 0,0.15132 0,2.74914 c 0,0.48425 0.0656,1.61922 0.22699,3.55622 0.0807,1.21063 0.17655,2.34559 0.17655,3.15268 l 0,0.30266 c 0,0.9685 0.31275,2.19426 0.95842,3.40489 0.56496,1.21063 0.88275,1.8563 0.88275,2.01771 0,0.16142 -1.03408,1.04922 -3.0518,2.8248 -1.937,1.69488 -2.99549,2.57259 -3.07701,2.57259 -0.24213,0 -0.63054,-0.22699 -1.43762,-0.63054 -0.72799,-0.48505 -1.31152,-0.58513 -1.71506,-0.50442 0,0 -0.0663,0.18159 -0.22699,0.50442 -0.0807,0.16142 -0.17655,0.40355 -0.17655,0.80709 0,0.24213 0.16142,0.88275 0.40354,1.68984 0.16142,0.72637 0.32788,1.29133 0.32788,1.61417 0,0.56496 -0.15052,1.11478 -0.55487,1.84116 -0.32284,0.72638 -0.47921,1.29638 -0.47921,1.53851 0,0.24212 0.22699,0.65576 0.63054,1.0593 0.48506,0.56496 1.21567,0.797 1.94205,0.95841 l 0,0.25222 c 0.0807,0 0.0706,0.005 0.15133,-0.0756 0.0807,-0.16141 0.32202,-0.24717 0.40354,-0.32788 0.32203,-0.16141 0.4901,-0.25221 0.73142,-0.25221 0.40354,0 1.70497,1.04417 3.8841,2.90046 0.56415,0.40355 1.03408,0.90798 1.43762,1.31152 0,-0.16142 0.0958,-0.33797 0.17655,-0.58009 0.64567,-1.93701 1.43762,-2.8248 2.24471,-2.8248 0.56496,0 0.9685,0.24717 1.21063,0.73142 0.16141,0.64567 0.50443,0.89788 0.90797,1.0593 0.32283,0 0.80708,-0.0958 1.61417,-0.17655 0.80709,-0.16142 1.28629,-0.23204 1.68984,-0.15133 0.56334,0.16142 0.89445,0.40354 1.13496,0.80708 0.24213,0.16142 0.38841,0.63558 0.63054,1.36196 0.48586,1.29134 1.2191,1.86639 2.26992,1.86639 0.80709,0 1.59904,-0.33293 2.64825,-1.0593 0.8878,-0.80709 1.95557,-1.13497 2.92569,-1.13497 0.88941,0 1.51833,0.16646 1.84116,0.32788 0.56496,0.32284 0.80709,0.81718 0.80709,1.46284 0,0.40355 -0.24878,1.03913 -0.73142,1.7655 -0.48587,0.80709 -0.80709,1.21063 -0.80709,1.21063 0.72477,0.56496 3.14602,1.52842 7.26377,2.90047 0.48426,0.16141 0.97517,0.3422 1.53851,0.50443 3.06854,0.9685 4.99727,1.43762 5.72527,1.43762 0.9685,0 2.03789,-0.15133 2.92568,-0.55487 0.9685,-0.40355 1.93035,-0.5801 2.90047,-0.5801 0.1598,0 0.24212,0.10089 0.40354,0.10089 0.40354,0.0815 1.28629,0.0613 2.49692,0.30266 1.69488,0.24212 2.57259,0.32787 2.97613,0.32787 1.1283,0 2.59781,-0.15556 4.61552,-0.4792 1.93539,-0.32284 3.21321,-0.55487 3.85888,-0.55487 0.48425,0 1.14848,0.0613 1.71506,0.30265 0.40354,-0.48506 0.63053,-0.95337 1.03407,-1.43762 2.10004,-2.34055 5.89334,-4.20693 11.2992,-5.49827 0.16142,-0.0807 0.41202,-0.15133 0.65576,-0.15133 1.61417,-0.40354 3.95977,-0.81717 7.18811,-1.46284 2.25984,-0.40354 4.11109,-0.79195 5.72526,-1.03408 0.32122,-0.16142 0.6372,-0.17655 0.95842,-0.17655 l 0.0756,0 c 0.32122,-0.16142 0.7399,-0.22699 0.98364,-0.22699 0.1598,0 2.17751,0.63053 6.05314,1.84116 4.03543,1.29134 6.45669,1.86639 7.26377,1.86639 l 0.55487,0 c 1.29295,-0.0807 2.83994,-0.48425 4.61552,-1.21063 1.93701,-0.9685 3.21826,-1.38718 3.78322,-1.38718 0.0807,0 0.56496,0.24717 1.61417,0.73142 1.04921,0.56496 1.69992,0.80709 1.94205,0.80709 l 3.78321,0 c 2.26146,0 4.29431,-0.3985 6.2297,-1.2863 1.85629,-0.88779 3.54452,-1.36195 4.91818,-1.36195 1.37043,0 2.66338,0.0807 3.63188,0.40354 0.96689,0.16142 1.75541,0.47921 2.32037,0.88275 0.88941,0.56496 1.46285,1.43762 1.86639,2.64825 0.40354,1.53346 0.80043,2.43135 0.88275,2.67347 0.56496,0.72638 1.62083,1.13497 3.15268,1.13497 0.80708,0 1.53346,-0.17151 2.01771,-0.65576 0.32284,-0.24213 0.65576,-0.79195 1.0593,-1.43762 0.32122,-0.8878 0.56335,-1.46789 0.80709,-1.79072 0.48425,-0.56496 1.03408,-0.96851 1.84116,-1.21063 2.66338,-0.80709 4.37178,-1.29134 5.01907,-1.61417 1.1283,-0.40355 2.56592,-1.11984 4.26242,-2.16905 0.88779,-0.40354 1.3787,-1.70497 1.5385,-3.8841 0,-1.21063 0.0756,-2.17913 0.0756,-2.8248 0.0807,-1.12992 0.16807,-1.93196 0.32788,-2.49692 0.24374,-1.53346 0.79699,-3.30401 1.7655,-5.32172 0.72637,-1.61417 1.0593,-2.82984 1.0593,-3.55622 0,-0.8878 -0.81375,-2.18418 -2.3456,-3.95977 -1.61417,-1.77558 -2.42125,-2.89037 -2.42125,-3.45533 0,-0.8878 0.24878,-1.53851 0.73142,-1.94205 0.24374,-0.24213 0.81213,-0.4893 1.5385,-0.73142 0.72638,-0.16142 1.29639,-0.31275 1.53851,-0.55487 0.40354,-0.32284 0.63054,-0.89284 0.63054,-1.53851 0,-0.72638 -0.0722,-1.22072 -0.15133,-1.46284 -0.0807,-0.0807 -0.32788,-0.15133 -0.73142,-0.15133 -1.53185,0 -2.67004,-0.005 -3.55622,-0.32788 l 0,-1.86639 c 0.64566,-0.16141 1.5385,-0.31779 2.74913,-0.4792 0.80709,-0.40355 1.28286,-1.37205 1.36196,-2.8248 0,-0.64567 0.33292,-1.61418 1.0593,-2.8248 0.80708,-1.21063 1.21063,-2.18418 1.21063,-2.74914 0,-2.25984 -0.55487,-3.78826 -1.7655,-4.51464 -0.64728,-0.32283 -1.85791,-0.38841 -3.63189,-0.22699 -1.85791,0.0807 -3.0871,0 -3.73277,-0.40354 -1.12831,-0.72638 -1.68984,-2.19931 -1.68984,-4.53986 0,-0.64567 0.32788,-1.29134 1.13497,-2.01771 0.72638,-0.64567 1.0593,-1.37205 1.0593,-2.01772 0,-1.04921 -2.03285,-2.08329 -6.22969,-3.45533 -2.25984,-0.64567 -3.77817,-1.06435 -4.66597,-1.38718 -0.72638,-0.24213 -1.30142,-0.39346 -1.86638,-0.55487 -0.15981,0.32283 -0.31275,0.63558 -0.55488,0.95841 -0.24373,-0.32283 -0.4909,-0.87266 -0.73142,-1.43762 -0.0807,-0.24213 -0.0756,-0.3985 -0.0756,-0.47921 -0.48587,-1.77559 -0.81556,-3.00135 -1.0593,-3.80843 -0.24213,-0.64567 -0.4102,-1.20559 -0.73142,-1.68984 -0.24213,-0.48425 -0.5583,-0.96346 -0.88275,-1.28629 -0.8878,-0.64567 -2.02437,-0.6608 -3.55622,-0.17655 0,-1.61417 -0.87932,-3.2233 -2.57259,-4.91818 -1.04921,-1.04921 -1.60408,-1.69992 -1.7655,-1.94205 -0.56496,-0.64567 -0.80708,-1.2762 -0.80708,-1.84116 0,-0.64567 0.23546,-1.45276 0.88275,-2.42126 0.56334,-1.04921 0.95841,-1.8563 0.95841,-2.42126 0,-0.24212 -0.39507,-0.73646 -0.95841,-1.46284 -0.64729,-0.80709 -0.88275,-1.27621 -0.88275,-1.43762 0,-0.24213 -0.006,-0.49939 0.0756,-0.5801 0,-0.24212 0.1598,-0.46911 0.40354,-0.63053 0.40354,-0.24213 0.65576,-0.57505 0.65576,-1.0593 0,-0.24213 -0.25222,-0.97859 -0.65576,-2.26993 -0.32283,-1.29134 -0.47921,-2.00763 -0.47921,-2.16904 0,-0.96851 0.47921,-3.05684 1.2863,-6.20447 0.80708,-3.22835 1.28629,-5.50836 1.28629,-6.96112 0,-2.09842 -0.72133,-3.95472 -2.09338,-5.6496 -0.9685,-1.12992 -2.51205,-2.41621 -4.69118,-3.70755 -2.33894,-1.37204 -4.02696,-2.40612 -4.99385,-3.05179 -1.77559,-1.21063 -2.91559,-2.35064 -3.48055,-3.48056 -0.64567,-1.533465 -1.59904,-2.81472 -3.0518,-3.78322 -1.61417,-1.12992 -2.83145,-2.34055 -3.55622,-3.63189 -0.48748,-0.72638 -1.05425,-1.77559 -1.53851,-2.8248 -0.48425,-0.80708 -0.88275,-1.70497 -1.28629,-2.67347 l -2.74905,-5.64956 c -0.32284,-0.40354 -0.72638,-0.73142 -1.21063,-1.13496 -1.21063,-0.96851 -2.10347,-1.43763 -2.74914,-1.43763 -0.24212,0 -0.54478,0.16142 -1.10974,0.40355 -0.48587,0.16141 -0.90797,0.30265 -1.31151,0.30265 -0.96689,0 -2.15896,-0.24212 -3.531,-0.80708 -0.56496,-0.16142 -1.87486,-0.80709 -3.73278,-1.61417 -3.47046,-1.61417 -6.28679,-2.42126 -8.62572,-2.42126 z m -41.8928,18.43686 c 0.4443,0.45399 0.93864,0.98364 1.46285,1.58895 0.56496,0.60532 1.12739,1.25729 1.68983,1.94205 -0.56874,-0.68476 -1.1501,-1.33673 -1.71506,-1.94205 -0.52258,-0.60531 -0.99599,-1.13496 -1.43762,-1.58895 z m 28.6011,2.29515 c 0.25474,0.21061 0.50443,0.53974 0.7062,0.98364 0.24294,0.4439 0.50105,0.79826 0.78187,1.03408 -0.28733,-0.23582 -0.56456,-0.59018 -0.80709,-1.03408 -0.20177,-0.4439 -0.43255,-0.77303 -0.68098,-0.98364 z m -4.18675,0.45399 c 0.14648,0.31526 0.29256,0.58009 0.45398,0.78186 -0.007,0.004 -0.0182,-0.004 -0.0252,0 -0.16101,-0.20177 -0.28869,-0.4666 -0.42876,-0.78186 z m 11.19831,0.0504 c 0.0872,0.0945 0.16281,0.20036 0.22699,0.32788 0.04,0.12106 0.1068,0.23661 0.17655,0.32788 -0.0727,-0.0946 -0.13418,-0.20012 -0.17655,-0.32788 -0.0607,-0.12106 -0.14309,-0.2366 -0.22699,-0.32788 z m 25.95285,2.16905 c 0.006,-0.006 0.0196,0.006 0.0252,0 0.0605,0.10088 0.12232,0.192945 0.20177,0.277435 -0.0749,-0.0799 -0.1674,-0.157735 -0.22699,-0.252215 -0.003,-0.006 0.003,-0.0197 0,-0.0252 z m 2.42126,1.79073 c 0.003,0.004 0.0223,-0.004 0.0252,0 0.10088,0.10088 0.16252,0.20681 0.22699,0.32788 -0.0645,-0.12107 -0.15133,-0.227 -0.25221,-0.32788 z m -75.7904,10.49211 c 0.005,-0.004 0.0205,0.004 0.0252,0 -0.0984,0.0921 -0.20682,0.19673 -0.27744,0.30266 0.0706,-0.10593 0.15385,-0.2106 0.25221,-0.30266 z m 47.06319,5.47305 -0.7062,1.0593 c 0,0.22195 0.029,0.43129 0.10089,0.63054 -0.0719,-0.19925 -0.12611,-0.40859 -0.12611,-0.63054 l 0.73142,-1.0593 z m 8.44918,8.60051 c 0.005,-0.005 0.0205,0.005 0.0252,0 -0.11315,0.11479 -0.21336,0.24482 -0.30266,0.37832 -0.12106,0.14124 -0.232,0.29824 -0.32788,0.47921 0.0944,-0.18286 0.182,-0.33797 0.30266,-0.47921 0.0909,-0.1362 0.18467,-0.2643 0.30266,-0.37832 z m -14.88064,5.92703 c 0.005,-0.005 0.0203,0.005 0.0252,0 -0.0987,0.0984 -0.19713,0.20682 -0.27744,0.32788 0.0805,-0.12106 0.15264,-0.22952 0.25222,-0.32788 z m -7.56643,1.79073 c 0.0793,-0.0126 0.14164,0 0.20177,0 -0.12106,0 -0.28606,0.0152 -0.47921,0.0756 0.0957,-0.0303 0.19821,-0.063 0.27744,-0.0756 z m 44.74281,17.0749 c 0.004,-0.005 0.0208,0.004 0.0252,0 -0.089,0.0894 -0.19368,0.19232 -0.27743,0.30266 0.0838,-0.11034 0.16323,-0.21328 0.25221,-0.30266 z m -38.81578,34.32637 c 0.0807,0 0.16808,0.0756 0.32788,0.0756 l -0.15133,0.17655 c -0.0823,-0.0807 -0.0974,-0.1715 -0.17655,-0.25221 z m -9.50848,13.31691 c -0.32898,0.31101 -0.62044,0.69107 -0.88275,1.13497 0.26231,-0.4439 0.55235,-0.82348 0.88275,-1.13497 z"
   id="ภาคอีสาน"
   inkscape:label="#ภาคอีสาน"
   inkscape:connector-curvature="0" />


















<path
   style="fill:#00b5f4"
   d="m 97.95435,0.80708641 c -1.372035,0 -2.587715,0.166461 -3.556215,0.73142099 -0.48425,0.242126 -1.20558,0.887794 -2.09338,1.614172 -0.80708,0.807085 -1.45275,1.367001 -2.01771,1.689835 -0.9685,0.403543 -2.01267,0.731422 -3.30401,0.731422 -1.45275,0 -2.74913,-0.570005 -3.95976,-1.538507 -0.56496,-0.484252 -0.96851,-0.796998 -1.21063,-0.958415 -0.40354,-0.242125 -0.80709,-0.504428 -1.21063,-0.504428 -0.40354,0 -0.97859,0.171505 -1.46284,0.252214 -0.56496,0.161417 -0.95337,0.31779 -1.03408,0.479207 0.32283,0.322834 0.73142,0.721333 1.13496,1.286293 0.48425,0.645669 0.7062,1.230806 0.7062,1.715057 -0.0807,0.968503 0.32284,1.770544 1.21063,2.4969217 0.8878,0.726377 1.38718,1.2005399 1.38718,1.3619569 0,0.322834 -0.55992,0.721333 -1.68984,1.286293 -1.21062,0.807085 -3.23843,1.785677 -5.90181,3.077014 -0.32283,0 -0.9685,-0.252214 -2.01771,-0.655757 -0.96851,-0.322835 -1.8563,-0.479207 -2.8248,-0.479207 -2.58268,0 -4.26747,0.650712 -5.39739,1.94205 -0.64567,0.968502 -1.12992,2.501965 -1.21063,4.438971 -0.24212,2.8248 -0.32283,4.353219 -0.40354,4.514636 -0.242127,1.372045 -1.049213,2.017714 -2.421259,2.017714 -1.291337,0 -2.43639,-0.408587 -3.404892,-1.134964 -0.887795,-0.726377 -1.689836,-1.034079 -2.093379,-1.034079 -0.56496,0 -1.054256,0.166462 -1.538507,0.731422 -0.484252,0.645668 -0.81213,1.114787 -1.134964,1.437621 -0.645669,0 -1.367002,0.01513 -2.093379,0.17655 -0.807086,0.08071 -1.291337,0.146284 -1.614171,0.226993 -2.098423,1.049211 -3.546133,1.629304 -4.111093,1.790721 -0.322835,0.08071 -1.614172,0.07567 -4.035429,0.07567 -1.372046,-0.08071 -3.788258,-0.640625 -7.339436,-1.689836 -3.470468,-1.12992 -5.165348,-1.715057 -5.246057,-1.715057 -0.484251,0 -0.978591,0.181594 -1.462843,0.504428 -0.726377,0.322835 -1.034078,0.887795 -1.034078,1.614172 0,1.69488 -0.807086,3.066925 -2.421257,4.035428 -1.12992,0.56496 -1.710013,0.88275 -1.790722,0.88275 -0.484251,0.403543 -0.731421,0.877706 -0.731421,1.361957 0,0.322835 0.09584,0.721333 0.17655,1.286289 0.161417,0.64567 0.226993,1.0593 0.226993,1.46285 -0.484252,0.0807 -1.195496,0.57505 -2.244707,1.46284 -0.968503,0.9685 -1.462843,1.68984 -1.462843,2.09338 0,0.24212 0.257258,0.71629 0.580093,1.36196 0.403542,0.72637 0.479207,1.22576 0.479207,1.38717 -0.08071,0.16142 -0.252215,0.24213 -0.655757,0.40355 -0.403543,0.16141 -0.645669,0.24212 -0.807086,0.40354 0.161417,0.24213 0.56496,0.95841 1.210628,2.16904 0.403543,0.8878 0.655758,1.60409 0.655758,2.16905 0,0.64566 -0.963459,2.25984 -2.900465,4.84251 l -3.329228,4.43897 c 0.726377,0.56496 1.538507,1.05426 2.345593,1.53851 0.56496,0.40354 0.978591,0.73646 1.0593,1.0593 0.161417,0.24212 0.327878,0.71629 0.327878,1.36196 0,0.48425 -0.100886,1.44771 -0.100886,2.90046 0,2.25984 -0.07566,3.64702 -0.07566,4.21198 -0.403543,1.45275 -1.205584,2.10347 -2.496921,1.94205 -0.726377,-0.16142 -2.103467,0.31274 -3.9597646,1.36196 -1.937005,1.12992 -3.0669254,1.61417 -3.2283424,1.61417 -0.726378,0 -1.528419,-0.72638 -2.496922,-2.01772 -0.887794,-1.45275 -1.614171,-2.09338 -2.017714,-2.09338 -0.242126,0 -0.479207,0.15638 -0.88275,0.47921 -0.48425204,0.24213 -0.73142204,0.72638 -0.73142204,1.21063 0,0.72638 0.479208,1.53346 1.28629304,2.42126 0.56496,0.56496 1.049212,1.22071 1.614172,1.86638 0.242125,0.48425 0.398498,1.02904 0.479207,1.91683 0.08151,0.48425 0.100886,1.1501 0.100886,2.1186 0.161417,1.45276 0.802041,2.16904 2.093378,2.16904 0.726377,0 1.4376224,-0.39345 1.8411644,-1.36195 0.403543,-1.04921 1.064345,-1.46285 1.790722,-1.46285 0.6456676,0 1.1349636,0.0858 1.5385066,0.32788 0.484251,0.40355 0.7062,0.87266 0.7062,1.43762 0,0.24213 -0.221949,0.65576 -0.7062,1.0593 -0.484251,0.48426 -0.731421,1.04922 -0.731421,1.61418 0,0 0.81213,1.367 2.345592,4.11109 1.69488,2.74409 2.496922,4.03543 2.496922,4.03543 0,0.24212 -0.413632,1.05425 -1.0593,2.34559 -0.56496,1.21063 -0.807086,2.00763 -0.807086,2.57259 0,0.88779 0.413632,1.53346 1.0593,2.01771 0.807086,0.64567 1.604083,1.29638 2.169043,1.94205 -0.161417,0.0807 -0.322834,0.24717 -0.403543,0.327885 0.645669,0.80708 1.947094,2.3355 3.8841,4.51463 1.291337,1.61418 2.25984,3.07197 2.8248,4.36331 0.322834,0.64567 0.95337,1.30143 1.841164,2.26993 0.968503,0.88779 1.866386,1.60408 2.673472,2.16904 0.403543,0.32284 0.796997,1.03913 1.361957,2.16905 0.56496,1.21062 1.054256,1.94205 1.538507,2.34559 1.049212,0.64567 2.43639,2.19426 4.211979,4.61552 1.452754,1.8563 2.744091,2.96604 4.035428,3.12746 1.372046,0.24212 2.734003,1.29638 4.186757,3.15268 1.372046,1.937 2.017715,3.64701 2.017715,5.4226 0,0.56496 -0.252215,1.2863 -0.655757,2.09338 -0.56496,0.64567 -0.7062,1.20054 -0.7062,1.7655 0,0.64567 0.645668,1.9471 2.017714,3.8841 1.452754,2.25984 2.239663,3.46543 2.320371,3.70755 0.242126,0.48425 0.570005,1.9471 1.134965,4.69119 0.403542,1.85629 1.054255,3.29896 1.94205,4.18675 0.56496,-0.0807 1.210628,-0.73646 2.017714,-2.26992 0.645668,-1.45276 1.372046,-2.16905 2.017714,-2.16905 1.049212,0 2.007626,0.65072 2.572586,1.94205 0.484251,0.96851 0.731421,2.00258 0.731421,3.0518 0,0.9685 -0.307701,2.34559 -1.034078,3.95976 -0.807086,1.69488 -1.472932,2.59781 -2.1186,2.59781 -0.161417,0 -0.716289,-0.33797 -1.361957,-0.98364 -0.807086,-0.56496 -1.361958,-0.95841 -1.7655,-0.95841 -0.242126,0 -0.897883,0.55991 -1.866386,1.68983 -0.968503,1.12992 -1.609127,1.68984 -1.689836,1.68984 -0.322834,0 -0.655757,-0.16142 -1.0593,-0.40354 -0.403543,-0.24213 -0.640624,-0.40355 -0.88275,-0.40355 0,0.0807 -0.08575,0.40355 -0.327878,0.80709 -0.08071,0.40354 -0.07567,0.81213 -0.07567,1.13496 0,0.72638 0.166462,1.38214 0.731422,1.86639 0.484251,0.48425 0.807085,0.9685 0.807085,1.61417 0,1.29134 -0.49434,2.96604 -1.462842,5.14517 -0.726378,2.17913 -1.12992,3.72268 -1.210629,4.69119 l 1.462843,0 c 0.887794,0.48425 2.103467,1.05425 3.556221,1.5385 0.968503,0.56496 1.44771,1.61418 1.286293,3.22835 -0.242126,1.04921 0.327879,2.08833 1.538507,2.97613 0.161417,0.16141 0.544783,0.41363 1.513286,1.0593 0.484251,0.32283 0.822219,0.56496 0.983636,0.80708 0.887794,1.53346 2.491877,3.38472 4.5903,5.72527 0.968503,1.04921 1.775588,2.01267 2.421257,2.90046 -0.08071,0.48425 -0.226993,1.04921 -0.226993,1.61417 0.08071,2.42126 1.52337,3.86897 4.18676,4.51464 0.16141,0 1.37204,0.25726 3.63188,0.58009 0.80709,0.16142 1.62426,0.3985 2.26993,0.47921 0.0807,-0.24213 0.15133,-0.39346 0.15133,-0.55487 0.24213,-1.04922 0.41363,-1.79073 0.65576,-2.19427 0.40354,-0.56496 0.95841,-0.80708 1.7655,-0.80708 0,0 1.86134,0.6608 5.57393,2.19426 3.7126,1.45275 5.56385,2.24471 5.72527,2.24471 0.64567,-0.56496 1.20558,-0.95337 1.68983,-1.43762 2.34055,-1.93701 3.55622,-3.4049 3.55622,-4.21198 0,-0.48425 -0.47416,-1.20054 -1.36195,-2.16905 -0.8878,-0.9685 -1.31152,-1.70496 -1.31152,-2.26992 0,-1.04922 0.4893,-1.7655 1.53851,-2.16905 0.72638,-0.24212 1.95214,-0.40354 3.80844,-0.40354 0.0807,0 0.71124,0.0706 1.84116,0.15133 1.12992,0.24212 2.093376,0.25221 2.900456,0.25221 2.42126,-0.0807 3.73278,-1.04921 3.73278,-2.8248 0,-0.56496 -0.16142,-1.04921 -0.40355,-1.61417 1.37205,0 2.48684,0.32284 3.45534,0.80709 1.29134,0.72637 2.25984,1.92691 3.22834,3.78321 0.48425,0.9685 1.22576,2.58772 2.19427,4.76685 0.24212,0.48425 0.46407,0.88275 0.7062,1.28629 0.88779,1.21063 1.95213,2.02781 3.00135,2.67348 0.0807,-0.16142 0.14628,-0.24213 0.22699,-0.40355 1.29134,-1.53346 2.50701,-3.47047 3.95976,-5.6496 1.45276,-2.34055 2.99631,-4.43897 4.69119,-6.45668 0.64567,-0.72638 1.11983,-1.37205 1.7655,-2.01772 l 0.0757,0.0757 c 0.32284,-0.32284 0.97355,-0.57505 1.94205,-1.0593 0.48425,-0.16142 0.98364,-0.24213 1.38718,-0.40355 1.69488,0 3.12746,0.24717 4.33809,0.73143 0.64567,0.40354 1.53346,1.0593 2.42125,1.86638 0.8878,0.8878 1.70497,1.44267 2.26993,1.7655 1.04921,0.48425 2.24975,0.80709 3.78322,0.80709 2.17913,0 3.71259,-0.32284 4.43897,-0.80709 0.48425,-0.40354 0.90293,-1.19549 0.98363,-2.24471 0.16061,-1.37204 0.4094,-2.35568 0.73143,-3.00135 0.40354,-0.64566 0.9685,-1.20054 1.61417,-1.7655 0,-0.24212 -0.0958,-0.49434 -0.17655,-0.65575 0.48506,-0.24213 0.97778,-0.71125 1.46284,-1.43762 0.48425,-0.72638 0.73142,-1.21568 0.73142,-1.53851 0,-0.72638 -0.16142,-1.29134 -0.40354,-1.61417 -0.16142,-0.0807 -0.49434,-0.25726 -1.0593,-0.5801 -1.04921,-0.32283 -1.53851,-1.51833 -1.53851,-3.45533 0,-1.53346 0.40354,-2.74409 1.21063,-3.63189 0.32283,-0.48425 0.57,-0.82222 0.73142,-0.98363 0.24213,-0.32284 0.32788,-0.63054 0.32788,-1.03408 0,0 -0.33212,-0.81213 -1.0593,-2.34559 -0.80709,-1.53347 -1.21063,-2.66843 -1.21063,-3.55623 0,-4.03542 1.38133,-8.29785 4.28764,-12.73682 l 2.97613,-4.3633 c 0.88941,-1.21063 1.2863,-2.03285 1.2863,-2.59781 l -0.47921,-1.03408 c -0.40354,-0.72638 -0.63054,-1.22576 -0.63054,-1.38718 l 1.91683,0 c 0.72476,0.40354 1.55203,0.82222 2.52214,1.38718 0.72638,0.40354 1.59904,0.55487 2.64825,0.55487 0.16142,0 0.48587,-0.16142 0.80709,-0.40354 0.0823,-0.16142 0.16989,-0.24213 0.25221,-0.40354 0.56335,-0.56496 0.73143,-1.12488 0.73143,-1.68984 l 0,-0.0756 c 0,-0.64567 -0.49091,-1.37205 -1.53851,-2.01772 -0.9685,-0.72638 -1.4695,-1.52842 -1.38718,-2.49692 0.16142,-2.09842 0.18159,-3.38976 0.10089,-4.03543 -0.0807,-1.45275 -0.56496,-2.26993 -1.61418,-2.26993 -1.21062,0 -2.25984,-0.0756 -3.22834,-0.4792 -0.32122,-0.16142 -1.13416,-0.57001 -2.34559,-1.13497 -2.09923,-1.21063 -4.84252,-1.68983 -8.07086,-1.68983 -0.9685,0 -2.25479,1.11478 -3.70755,3.45533 -0.9685,1.45276 -1.53346,2.25984 -1.61417,2.42126 -0.56496,0.72638 -0.98364,1.13496 -1.38718,1.13496 -0.24212,0 -0.57,-0.0807 -0.73142,-0.40354 -0.32283,-0.24213 -0.54478,-0.79195 -0.7062,-1.43762 -0.32283,-0.9685 -0.40354,-1.95214 -0.40354,-3.00135 0,-0.72638 0.23203,-1.60408 0.55487,-2.57259 0.32283,-1.04921 0.55487,-1.62426 0.55487,-1.86638 0,-2.17913 -0.31779,-3.62684 -0.88275,-4.1111 -0.32283,-0.40354 -1.61922,-0.95841 -3.95976,-1.7655 -0.48426,-0.24212 -0.78691,-0.57504 -1.10975,-1.0593 -0.16141,-0.48425 -0.32283,-1.12992 -0.40354,-2.01771 0,-1.21063 -0.42372,-1.93701 -1.31151,-2.01771 -0.48426,-0.0807 -0.72134,-0.24717 -0.88275,-0.32788 -0.24213,-0.16142 -0.32788,-0.4893 -0.32788,-1.13497 0,-0.56496 0.16646,-1.21063 0.73142,-1.61417 0.56496,-0.56496 1.21063,-0.7062 2.01771,-0.7062 0.24213,0 0.72134,0.0605 1.2863,0.30266 0.40354,0.24212 0.81213,0.24717 1.13496,0.32788 -0.32283,-0.40355 -0.40354,-0.73142 -0.40354,-1.13497 0,-1.61417 0.0908,-2.97108 0.25221,-4.26242 0.24213,-1.69488 0.63054,-3.152685 1.03408,-4.363315 0.56496,-1.53346 1.53346,-2.91559 2.8248,-4.28764 1.61417,-1.61417 2.50197,-2.57258 2.8248,-2.97613 0.80709,-1.21063 1.21063,-2.90046 1.21063,-4.91818 0,-0.72637 -0.15133,-1.22576 -0.55487,-1.79072 -0.32284,-0.40354 -0.55487,-0.95841 -0.55487,-1.7655 0,-0.48425 0.32283,-1.22071 0.80708,-2.26993 0.48425,-0.9685 0.7062,-1.60912 0.7062,-1.68983 0,-0.32284 0.006,-0.54983 -0.0756,-0.63054 -0.0807,-0.0807 -0.16727,-0.1715 -0.32788,-0.25221 -0.72638,0.24212 -1.60913,0.15637 -2.49692,-0.32788 -0.64567,-0.24213 -1.03913,-0.47921 -1.36196,-0.88275 -0.16142,-0.32283 -0.17655,-0.56496 -0.17655,-0.80709 0,-2.01771 0.97859,-3.79834 3.07701,-5.57393 0.56496,-0.48425 1.37709,-1.21063 2.3456,-2.01772 0.80708,-0.80708 1.37709,-1.51833 1.5385,-2.2447 -0.16141,0 -0.48425,-0.0958 -0.80708,-0.17655 -0.40354,-0.0807 -0.7407,-0.15133 -0.98364,-0.15133 l 0,-1.53851 c 0.8886,-0.24212 1.30728,-0.3985 1.38718,-0.47921 0.0815,-0.0807 0.0756,-0.41363 0.0756,-1.0593 0,-1.69488 0.63638,-3.63188 1.7655,-5.6496 0.24293,-0.48425 0.57424,-1.12992 1.0593,-2.01771 0.32202,-0.64567 0.55487,-1.28125 0.55487,-1.7655 0,-0.64571 -0.23708,-1.135 -0.47921,-1.53855 -0.16142,-0.24212 -0.65071,-0.57 -1.13496,-1.13496 -1.12912,-0.8878 -1.60489,-2.08834 -1.7655,-3.37967 -0.0815,-2.42126 -0.5801,-4.12118 -1.38718,-5.1704 -0.48506,-0.56496 -0.72638,-0.89788 -0.80709,-1.0593 -0.24212,-0.48425 -0.40354,-0.95841 -0.40354,-1.7655 0,-0.40354 0.25726,-0.81213 0.58009,-1.13496 0.24213,-0.0807 0.64063,-0.23708 1.28629,-0.47921 1.29134,-0.40354 1.86639,-1.22071 1.86639,-2.26993 0,-0.807081 -0.24798,-1.518326 -0.73142,-2.244703 -0.48506,-0.726377 -1.14001,-1.134964 -1.86639,-1.134964 -0.32202,0 -0.64567,0.161417 -1.21063,0.403543 -0.40354,0.322834 -0.81213,0.403543 -1.13496,0.403543 -0.0807,0 -0.86762,-0.31779 -2.32037,-0.88275 -1.53346,-0.726378 -2.75418,-1.0593 -3.48056,-1.0593 -1.29134,0 -2.65834,0.807085 -4.11109,2.421257 -0.8878,1.049211 -1.37205,1.533463 -1.61417,1.614171 -0.48425,0.564963 -0.97859,0.807083 -1.46285,0.807083 -0.16141,0 -0.64566,-0.31779 -1.61417,-0.882747 -1.04921,-0.56496 -1.85125,-0.88275 -2.49692,-0.88275 -0.32283,0 -0.89284,0.08575 -1.53851,0.327878 -0.64566,0.161418 -1.11478,0.302658 -1.43762,0.302658 l -0.17655,0 c -2.01771,0 -3.63693,-0.963459 -4.76685,-2.900465 -0.80708,-1.291337 -1.2762,-2.8248 -1.43762,-4.438971 -0.0807,-0.484252 -0.0756,-0.973547 -0.0756,-1.538507 0.56496,-0.807086 1.29133,-1.921873 2.01771,-3.455336 1.61417,-3.147634 2.80462,-6.618103 3.531,-10.492114 -1.8563,-0.322835 -3.94463,-2.0126699 -6.60801,-4.9181786 -1.21067,-1.533463 -2.08838,-2.592763 -2.57263,-3.077014 -0.80708,-0.887794 -1.39222,-1.361957 -1.71506,-1.361957 -0.32283,0 -0.96345,0.383365 -2.09337,1.109743 -1.21063,0.807085 -1.84117,1.462842 -1.84117,1.866385 0,0.726377 0.0605,1.301426 0.30266,1.866386 0.0807,0.403543 0.10088,0.549827 0.10088,0.630536 -0.56496,0 -1.6293,0.08575 -3.00135,0.327878 -0.32283,0 -0.71124,-0.005 -1.03407,0.07567 l -0.25222,0 -0.25221,0 -0.0756,0 c -0.56496,-0.08071 -1.03912,-0.166462 -1.36195,-0.327879 0,-0.645669 0.24717,-1.351869 0.73142,-1.916829 0.56496,-0.645668 0.7062,-1.134964 0.7062,-1.538507 0,-0.726377 -0.30266,-1.44771 -1.10975,-2.093378 -0.80712,-0.726377 -1.705,-1.05929999 -2.67351,-1.05929999 z M 73.994005,67.46732 l 0.0757,0.17655 c -0.0404,0 -0.0668,0.0227 -0.0757,0.0504 l 0,-0.22699 z m 57.353515,77.35413 c -0.44389,0.77682 -0.79195,1.55364 -1.03407,2.32037 0.24212,-0.76673 0.58766,-1.54103 1.03407,-2.32037 z"
   id="ภาคเหนือ"
   inkscape:label="#ภาคเหนือ"
   inkscape:connector-curvature="0" />
















<path
   style="fill:#3db52c"
   d="m 44.762365,177.55887 c 0,0.0831 -0.07566,0.0706 -0.07566,0.15133 0,0.9685 0.252214,2.34054 0.655757,4.03542 0.403543,1.77559 0.554871,3.0064 0.554871,3.73278 0,1.45275 -0.31779,2.2447 -0.88275,2.64825 -0.322834,0.0807 -1.049211,0.15641 -2.017714,0.0757 -0.968503,-0.0807 -1.619216,0 -1.94205,0.40354 -0.726377,0.56496 -1.054256,1.62931 -1.134964,3.4049 -0.403543,0 -0.963459,-0.0908 -1.689836,-0.25222 -0.807086,-0.16142 -1.291337,-0.15133 -1.614171,-0.15133 -0.56496,0 -1.689836,0.87771 -3.304008,2.57259 -1.533462,1.61417 -2.269928,2.58267 -2.269928,2.8248 0,2.42126 2.269928,7.33943 6.7089,15.00675 1.614171,2.74409 4.27251,7.10235 8.146521,12.91337 1.210629,2.01771 3.077015,3.96481 5.498272,5.90181 1.372045,1.12992 3.551177,2.74914 6.456685,4.76685 2.582675,1.9362 4.595345,3.79835 6.128809,5.57394 1.69488,2.01771 3.06692,4.25738 4.03543,6.75934 0.0807,0.16142 0.0757,0.32203 0.0757,0.40355 0.16142,0.32202 0.24213,0.58009 0.40354,0.98363 l -0.0757,0 c -0.0807,0.0807 -0.0958,0.14548 -0.17655,0.22699 0.0807,1.61418 0.25221,3.56551 0.65576,5.82615 0.40354,2.90551 0.65575,5.32677 0.65575,7.26378 0,2.25984 -0.10088,4.02614 -0.50442,4.99384 -0.16142,0.24293 -0.24213,0.48506 -0.40355,0.80708 -0.16141,0.24294 -0.40354,0.41283 -0.80708,0.65576 -0.56496,0.24213 -0.87266,0.48425 -1.03408,0.80709 -0.32284,0.56415 -0.58009,1.7655 -0.58009,3.37967 0,1.37204 1.15009,4.13288 3.32922,8.24741 2.01772,3.7142 4.66092,7.10235 7.96998,10.08857 0.64566,-0.16142 1.45275,-0.32788 2.42125,-0.32788 1.37205,0 2.27498,0.0722 2.59781,0.15133 0.72638,0.24374 1.43762,0.80042 2.24471,1.68983 l 0.65575,0 c 0.16142,-0.48586 0.23204,-0.96184 0.15133,-1.68983 l -0.15133,-1.61417 c 0.96851,-0.0807 1.77559,0.40354 2.42126,1.21062 0.72638,0.96851 1.53346,1.46285 2.42126,1.46285 0.56496,0 1.22072,-0.41202 2.26993,-1.0593 0.9685,-0.56335 1.77559,-0.88275 2.42125,-0.88275 0.32284,0 0.96851,0.0858 2.017721,0.32788 0.32283,0.1598 0.54478,0.16646 0.7062,0.32787 l 0,-0.32787 c 0,-3.63189 0.80708,-6.95769 2.42126,-9.86158 0.80708,-1.29295 1.29133,-2.23967 1.61417,-2.72392 0.48425,-0.9685 0.80708,-1.77559 0.80708,-2.42125 0,-0.80709 -0.22195,-1.63435 -0.7062,-2.52215 -0.40354,-0.88941 -0.72637,-1.91683 -0.80708,-3.12745 0,-0.32203 -0.65576,-0.97436 -1.86639,-1.94205 -0.88779,-0.64648 -1.44266,-1.30143 -1.7655,-1.86639 l -0.0504,0 c -0.071,-0.0947 -0.13223,-0.18292 -0.22699,-0.27744 -0.0131,-0.0262 -0.0121,-0.0497 -0.0252,-0.0757 l 0.20178,-0.0504 c 0,0 3.19343,-4.32296 6.02792,-5.57394 l 3.98498,-2.49692 c 1.04921,-0.0807 2.2548,-0.15561 3.70755,-0.0757 0.72638,0.0807 1.78064,0.0757 3.15268,0.0757 l 0.25222,0 1.36195,0 c 0.96851,-0.16061 2.01772,-0.40354 2.8248,-0.80709 1.29134,-0.64566 2.10851,-0.95841 2.26993,-0.95841 0.0807,0 1.76046,0.56415 5.06951,1.61417 1.937,0.64567 3.4856,1.21648 4.61552,1.53851 0.32283,0.0815 0.63558,0.22699 0.95841,0.22699 0.0807,0 0.24213,0.0967 0.40355,0.17655 0.16141,-0.16142 0.41867,-0.17655 0.58009,-0.17655 0.56496,0 1.02903,0.25807 1.51329,0.58009 l 0.17655,0.30266 c 0.24212,0.16142 0.55487,0.66585 0.95841,1.31152 -1.29134,1.85629 -2.57259,5.07878 -3.78321,9.76069 0,0.24212 0.22699,0.71044 0.63053,1.43762 0.40354,0.80709 0.50443,1.38718 0.50443,1.79072 0,0.64567 -0.17151,1.37043 -0.65576,2.01772 -0.56496,0.72476 -0.73142,1.21062 -0.73142,1.61417 0,1.37043 0.3985,2.41278 1.28629,3.37967 0.80709,0.9685 1.21063,1.61417 1.21063,2.01771 0,0.40355 -0.40354,1.06596 -1.21063,1.79072 -0.88779,0.64567 -1.28629,1.45276 -1.28629,2.42126 0,0.40354 0.0958,0.71125 0.17655,1.03408 0.0807,0.0823 0.31275,0.40354 0.55487,0.80709 1.37205,-0.56335 2.33551,-0.96689 2.90047,-1.21063 l 0.40354,-0.15133 c 0.32283,-0.0823 1.46284,-0.17655 3.48056,-0.17655 2.50196,0 4.99384,0.58009 7.4151,1.79072 0.56496,0.24213 1.44771,0.57 2.49692,1.13496 0.80708,0.32284 1.45275,0.47921 2.01771,0.47921 0.40355,0 1.79577,-0.40859 4.13632,-1.13496 2.8248,-0.8878 5.15526,-1.52842 7.01155,-2.09338 0.16142,-0.16142 0.24717,-0.25222 0.32788,-0.25222 l 0.0757,0 c 0.16141,-0.1598 0.31779,-0.22699 0.4792,-0.22699 0.80709,0 1.60752,0.0672 2.49693,0.22699 2.50196,0.48587 4.9434,1.62265 7.36465,3.48056 2.74409,2.09842 4.98376,4.67605 6.75935,7.74298 0.88779,1.53346 1.85629,2.90551 2.8248,4.03543 1.21062,1.53346 2.52214,2.66843 3.73277,3.55622 0.88941,0.56335 1.99753,1.21729 3.531,1.94205 2.74247,1.21063 4.19684,1.8563 4.43897,2.01771 l 0,-1.71505 c 0,-0.64648 0.16807,-1.12326 0.32788,-1.68984 l 0.80708,0 c 0.80709,0.80709 2.10851,2.33046 3.8841,4.5903 1.69488,1.77559 3.05845,2.74409 4.18676,2.8248 l 0,-0.7062 c -0.64567,-0.64728 -1.2762,-1.30142 -1.84116,-1.86638 -0.96851,-1.21063 -1.53851,-2.40613 -1.53851,-3.45534 0,-0.72476 0.30609,-2.34559 1.03408,-5.17039 0.56496,-2.58268 0.90797,-3.8841 0.90797,-3.8841 0,-1.37043 -0.42372,-2.74248 -1.31152,-4.03543 -0.32283,-0.48425 -1.29295,-1.61417 -2.8248,-3.22834 -1.45275,-1.45276 -2.40108,-2.8248 -3.12745,-4.03543 -0.48425,-0.96689 -0.98868,-2.09843 -1.31152,-3.22835 -0.32283,-0.96688 -0.54478,-1.92691 -0.7062,-2.97612 -0.0807,-0.96851 -1.21728,-3.95472 -3.15268,-8.87795 -1.61417,-4.11775 -2.58771,-7.27305 -2.74913,-9.5337 -0.0815,-0.40354 -0.0757,-0.71629 -0.0757,-0.95841 -0.0815,-1.37205 -0.0815,-2.51206 0,-3.48056 0.24294,-2.01771 0.79115,-2.97613 1.84117,-2.97613 0.16061,0 1.60913,0.0656 4.11109,0.227 2.50277,0 3.73277,-0.55488 3.73277,-1.7655 0,-0.16142 -0.17655,-0.57001 -0.58009,-1.13497 -0.32283,-0.48425 -0.47921,-0.81294 -0.47921,-1.13496 0,-0.64567 0.87932,-1.76046 2.57259,-3.45534 2.09923,-2.17913 3.55622,-4.02958 4.36331,-5.72526 0.96769,-2.33974 1.85125,-4.12623 2.49692,-5.49827 0.80708,-1.69488 1.61417,-3.15773 2.42125,-4.28765 -0.56496,-0.24212 -1.20558,-0.30265 -1.68983,-0.30265 -0.64648,0 -1.92107,0.23203 -3.85888,0.55487 -2.01771,0.32283 -3.48722,0.4792 -4.61552,0.4792 -0.40354,0 -1.28286,-0.0866 -2.97613,-0.32787 -1.21063,-0.24213 -2.09338,-0.22195 -2.49692,-0.30266 -0.15577,0 -0.24213,-0.10089 -0.40354,-0.10089 -0.96851,0 -1.93035,0.17655 -2.90047,0.5801 -0.88779,0.40354 -1.95557,0.55487 -2.92568,0.55487 -0.72638,0 -2.65673,-0.46912 -5.72527,-1.43762 -0.56334,-0.16142 -1.05587,-0.34221 -1.53851,-0.50443 -4.11775,-1.37205 -6.539,-2.33551 -7.26377,-2.90047 0,0 0.32122,-0.40354 0.80709,-1.21063 0.48425,-0.72637 0.73142,-1.36195 0.73142,-1.7655 0,-0.64566 -0.24213,-1.14 -0.80709,-1.46284 -0.32122,-0.16142 -0.95175,-0.32788 -1.84116,-0.32788 -0.9685,0 -2.03789,0.32788 -2.92569,1.13497 -1.04921,0.72637 -1.84116,1.0593 -2.64825,1.0593 -1.05082,0 -1.78406,-0.57505 -2.26992,-1.86639 -0.24213,-0.72638 -0.38841,-1.20054 -0.63054,-1.36196 -0.24213,-0.40354 -0.57162,-0.64566 -1.13496,-0.80708 -0.40355,-0.0807 -0.88275,-0.0101 -1.68984,0.15133 -0.80709,0.0807 -1.29134,0.17655 -1.61417,0.17655 -0.40354,-0.16142 -0.74494,-0.41363 -0.90797,-1.0593 -0.24213,-0.48425 -0.64567,-0.73142 -1.21063,-0.73142 -0.80709,0 -1.59904,0.88779 -2.24471,2.8248 -0.0815,0.24212 -0.17655,0.41867 -0.17655,0.58009 -0.40354,-0.40354 -0.87347,-0.90797 -1.43762,-1.31152 -2.17913,-1.85629 -3.48056,-2.90046 -3.8841,-2.90046 -0.24213,-8.1e-4 -0.40859,0.0908 -0.73142,0.25221 -0.0815,0.0807 -0.32284,0.16647 -0.40354,0.32788 -0.0815,0.0807 -0.0714,0.0757 -0.15133,0.0757 l 0,-0.25222 c -0.72638,-0.16141 -1.4578,-0.39345 -1.94205,-0.95841 -0.40355,-0.40354 -0.63054,-0.81718 -0.63054,-1.0593 0,-0.24213 0.15637,-0.81213 0.47921,-1.53851 0.40354,-0.72638 0.55487,-1.2762 0.55487,-1.84116 0,-0.32284 -0.16646,-0.8878 -0.32788,-1.61417 -0.24212,-0.80709 -0.40354,-1.44771 -0.40354,-1.68984 0,-0.40354 0.0958,-0.64567 0.17655,-0.80709 l 0.22699,-0.50442 c 0.40354,-0.0807 0.98868,0.0202 1.71506,0.50442 0.80708,0.40355 1.19549,0.63054 1.43762,0.63054 0.0815,0 1.1392,-0.87771 3.07701,-2.57259 2.01772,-1.77558 3.0518,-2.66338 3.0518,-2.8248 0,-0.16141 -0.31699,-0.80708 -0.88275,-2.01771 -0.64567,-1.21063 -0.95842,-2.43639 -0.95842,-3.40489 l 0,-0.30266 c 0,-0.80709 -0.0966,-1.94205 -0.17655,-3.15268 -0.16141,-1.937 -0.22699,-3.07197 -0.22699,-3.55622 l 0,-2.74914 c -0.0815,-1.85629 -0.17655,-3.29391 -0.17655,-4.26242 -0.24213,-2.17913 -0.54478,-4.20189 -1.10974,-5.97748 -0.64567,0.56496 -1.21063,1.11984 -1.61417,1.7655 -0.32203,0.64567 -0.57082,1.62931 -0.73143,3.00135 -0.0815,1.04922 -0.50019,1.84117 -0.98363,2.24471 -0.72638,0.48425 -2.25984,0.80709 -4.43897,0.80709 -1.53347,0 -2.73401,-0.32284 -3.78322,-0.80709 -0.56496,-0.32283 -1.38213,-0.8777 -2.26993,-1.7655 -0.88779,-0.80708 -1.77558,-1.46284 -2.42125,-1.86638 -1.21063,-0.48426 -2.64321,-0.73143 -4.33809,-0.73143 -0.40354,0.16142 -0.90293,0.24213 -1.38718,0.40355 -0.9685,0.48425 -1.61921,0.73646 -1.94205,1.0593 l -0.0757,-0.0757 c -0.64567,0.64567 -1.11983,1.29134 -1.7655,2.01772 -1.69488,2.01771 -3.23843,4.11613 -4.69119,6.45668 -1.45356,2.17913 -2.66842,4.11614 -3.95976,5.6496 -0.0807,0.16142 -0.14629,0.24213 -0.22699,0.40355 -1.04922,-0.64567 -2.11356,-1.46285 -3.00135,-2.67348 -0.24213,-0.40354 -0.46408,-0.80204 -0.7062,-1.28629 -0.96851,-2.17913 -1.71002,-3.79835 -2.19427,-4.76685 -0.9685,-1.8563 -1.937,-3.05684 -3.22834,-3.78321 -0.9685,-0.48425 -2.08329,-0.80709 -3.45534,-0.80709 0.24213,0.56496 0.40355,1.04921 0.40355,1.61417 0,1.77559 -1.31152,2.74409 -3.73278,2.8248 -0.80708,0 -1.770541,-0.0101 -2.900461,-0.25221 -1.12992,-0.0807 -1.76046,-0.15133 -1.84116,-0.15133 -1.8563,0 -3.08206,0.16142 -3.80844,0.40354 -1.04921,0.40355 -1.53851,1.11983 -1.53851,2.16905 0,0.56496 0.42372,1.30142 1.31152,2.26992 0.88779,0.96851 1.36195,1.6848 1.36195,2.16905 0,0.80708 -1.21567,2.27497 -3.55622,4.21198 -0.48425,0.48425 -1.04416,0.87266 -1.68983,1.43762 -0.16142,0 -2.01267,-0.79196 -5.72527,-2.24471 -3.71259,-1.53346 -5.57393,-2.19426 -5.57393,-2.19426 -0.80709,0 -1.36196,0.24212 -1.7655,0.80708 -0.24213,0.40354 -0.41363,1.14505 -0.65576,2.19427 0,0.16141 -0.0706,0.31274 -0.15133,0.55487 -0.64567,-0.0807 -1.46284,-0.31779 -2.26993,-0.47921 -2.25984,-0.32283 -3.47047,-0.58009 -3.63188,-0.58009 -2.66339,-0.64567 -4.106051,-2.09338 -4.18676,-4.51464 0,-0.56496 0.146284,-1.12992 0.226993,-1.61417 -0.645669,-0.88779 -1.452754,-1.85125 -2.421257,-2.90046 -2.098423,-2.34055 -3.702506,-4.19181 -4.5903,-5.72527 -0.161417,-0.24212 -0.499385,-0.48425 -0.983636,-0.80708 -0.968503,-0.64567 -1.351869,-0.89789 -1.513286,-1.0593 -1.210628,-0.8878 -1.780633,-1.92692 -1.538507,-2.97613 0.161417,-1.61417 -0.31779,-2.66339 -1.286293,-3.22835 -1.452754,-0.48425 -2.668427,-1.05425 -3.556221,-1.5385 l -1.462843,0 z m 125.274835,74.9833 c 0.0357,0 0.0784,0.0381 0.1261,0.0757 -0.0492,-0.0373 -0.0878,-0.0396 -0.1261,-0.0504 -0.003,-8.1e-4 0.003,-0.0247 0,-0.0252 z m -17.27668,6.86023 c 0.0807,0.24213 0.24797,0.55487 0.32788,0.95842 -0.0807,-0.40355 -0.24798,-0.71629 -0.32788,-0.95842 z m 25.32231,5.6496 c 0.008,8.1e-4 0.0174,-8e-4 0.0252,0 -0.0202,0.16142 -0.0619,0.32033 -0.10088,0.47921 0.0391,-0.15882 0.0555,-0.31779 0.0757,-0.47921 z m 10.61822,21.5391 c -0.19663,0.2168 -0.35438,0.46052 -0.45398,0.73142 0.10022,-0.27018 0.25652,-0.51577 0.45398,-0.73142 z m -3.50578,6.2297 c 0.27245,0 0.49572,0.0478 0.65576,0.15132 -0.1589,-0.10718 -0.37328,-0.15132 -0.65576,-0.15132 z m 0.85753,0.3531 c 0.0504,0.0794 0.10634,0.17655 0.12611,0.27743 0.0412,0.0807 0.0402,0.20641 0.0504,0.37832 -0.0149,-0.17402 -0.0345,-0.29761 -0.0757,-0.37832 -0.0202,-0.10088 -0.0514,-0.19941 -0.10089,-0.27743 z m -0.15133,7.062 c -0.23223,0.39345 -0.59098,0.83815 -1.03407,1.36195 0.44389,-0.5246 0.79825,-0.97354 1.03407,-1.36195 z m -1.71505,2.06815 c -0.24135,0.21549 -0.48493,0.39561 -0.73142,0.55487 0.24202,-0.15763 0.49426,-0.34332 0.73142,-0.55487 z"
   id="ภาคกลาง"
   inkscape:connector-curvature="0" />

















<path
   style="fill:#e0663b"
   d="m 85.444525,289.81945 0.15133,1.61417 c 0.0807,0.72557 0.0101,1.23 -0.15133,1.71505 l -0.65575,0 c -0.80709,-0.89586 -1.51833,-1.47293 -2.24471,-1.71505 -0.32283,-0.0807 -1.22576,-0.15133 -2.59781,-0.15133 -0.9685,0 -1.77559,0.16646 -2.42125,0.32788 0.64566,0.64567 0.90797,1.51833 0.90797,2.64825 0,0.24374 -0.1816,0.89788 -0.50443,1.86638 -0.40354,0.96689 -0.55487,1.59904 -0.55487,1.84117 0,0.32122 0.55991,2.10508 1.68983,5.17039 1.29134,3.38976 2.18418,5.49827 2.74914,6.30536 0.40354,0.80708 1.20054,2.58106 2.16904,5.6496 1.29134,3.38814 1.86639,5.72183 1.86639,7.01155 0,2.26146 -1.05426,4.19019 -3.15268,5.72527 -0.48425,0.48425 -1.367,1.06434 -2.49692,1.79072 -0.80709,0.64567 -1.44267,1.36196 -1.7655,2.16904 -0.64567,1.29295 -1.78568,3.22169 -3.48056,5.72527 -1.8563,2.90551 -3.15772,5.00393 -3.8841,6.45668 -0.80709,1.53266 -2.24975,3.14683 -4.18676,4.84252 -0.40354,0.40354 -0.73646,0.66584 -1.0593,0.90797 -2.42125,1.937 -3.874009,3.54109 -4.438969,4.99384 -0.322834,0.8886 -0.948325,1.76974 -1.916828,2.49692 l -2.269929,1.68984 c -0.161417,0.0807 -0.242125,0.0958 -0.403543,0.17655 -2.340548,1.69488 -3.480557,3.63854 -3.480557,5.97748 0,0.32283 0.08575,1.04336 0.327879,2.09338 0.322834,1.1283 0.403543,1.84701 0.403543,2.16904 0,2.09923 -0.872662,5.25191 -2.64825,9.60936 -0.968503,2.25984 -1.790722,3.96481 -2.597807,5.09473 -1.69488,2.25984 -3.051793,5.55376 -4.262422,9.91202 -0.645668,2.50358 -1.785677,6.47182 -3.077014,11.8793 -0.403543,1.12992 -0.887794,2.98621 -1.614172,5.6496 0,0 -0.07566,0.0672 -0.07566,0.22699 -0.726377,2.10004 -1.372046,3.6218 -2.017714,4.5903 -1.12992,1.45275 -2.01267,2.76265 -2.900464,3.73277 -0.242126,0.56335 -0.403543,1.92692 -0.403543,4.18676 0,0.9685 0.307701,2.26145 1.034078,4.03543 0.322835,0.80708 0.731422,1.62264 1.134965,2.26992 0,0.0807 -0.398499,1.44428 -1.286293,4.18676 -0.887795,2.98622 -1.387179,5.15869 -1.387179,6.53235 0,0.0807 0.252214,3.7126 0.655757,10.89566 0.322835,7.5059 0.479207,12.34841 0.479207,14.52754 0,1.29134 0.24717,2.44144 0.731422,3.32923 0.56496,0.9685 1.301426,1.51329 2.269928,1.51329 0.484252,0 1.276205,-1.03913 2.244708,-2.97613 1.049211,-1.8563 1.538507,-2.99207 1.538507,-3.55622 0,-0.48506 -0.252215,-1.11318 -0.655757,-1.84117 -0.322835,-0.64567 -0.554872,-1.30142 -0.554872,-1.86638 0,-0.24213 0.161417,-0.72053 0.403543,-1.2863 0.242126,-0.56576 0.403543,-0.98706 0.403543,-1.31151 0,-0.48425 -0.232037,-0.86923 -0.554872,-1.10974 -0.403542,-0.24294 -0.655757,-0.49091 -0.655757,-0.73143 0,-2.33974 0.81213,-4.51968 2.345593,-6.45668 1.533463,-2.01772 3.14259,-2.97613 4.918179,-2.97613 0.403543,0 0.807085,0.0621 1.210628,0.30266 0.726377,0.32202 1.372046,1.04921 2.017715,2.01771 0.56496,0.8878 1.372045,2.67347 2.421257,5.09473 0.968503,2.42126 1.785677,4.12703 2.269928,5.09473 0.968503,1.45356 2.002582,2.07986 3.051793,1.91683 1.533463,-0.16142 2.75418,0.32788 3.480557,1.5385 0.484252,0.88861 0.963459,2.4372 1.286296,4.61553 0.16141,1.12992 0.31274,3.14097 0.55487,5.72526 0.40354,2.25984 0.90797,3.95976 1.71506,5.17039 l 1.10974,0 c 0.0807,-0.64567 0.17655,-1.79496 0.17655,-3.32923 0,-1.45275 0.0656,-2.57682 0.22699,-3.304 1.8563,0.32202 3.49065,1.45356 4.53986,3.22834 0.24212,0.32203 0.46407,0.73485 0.7062,1.0593 0.16142,0.48425 0.65576,1.67632 1.46284,3.531 0.56496,1.61417 1.20054,2.98622 1.7655,4.03543 0.40354,0.72638 1.93701,2.27578 4.43897,4.61552 2.90551,2.58267 4.9434,3.85888 6.15403,3.85888 0.56496,0 1.03912,0.3414 1.36196,0.90797 0.16142,0.0807 0.1715,0.24213 0.25221,0.40354 0.0807,0.32122 0.30266,1.44348 0.7062,3.37967 0.8878,4.03543 2.58268,7.50086 5.24606,10.16424 1.21063,1.21063 3.07701,3.23843 5.498271,5.90181 2.17913,2.42126 3.7933,4.11695 4.84252,5.24606 0.72637,-0.0807 1.11983,-0.55487 1.36195,-1.36196 0.0807,-0.56415 0.1816,-1.54193 0.10089,-3.07701 0,-1.53266 -0.0101,-2.50782 0.15133,-3.15268 0.24212,-0.80708 0.73142,-1.28629 1.5385,-1.28629 l 0.15133,0 c 1.29134,0 2.09338,0.32283 2.49692,0.80708 0.32284,0.40355 0.49939,0.9786 0.5801,1.86639 0,1.12992 -0.0101,1.84702 0.15133,2.16904 0.24212,0.8886 0.80204,1.46285 1.68983,1.86639 3.38976,1.37204 6.78961,1.92692 9.93724,1.7655 2.25984,-0.16142 3.95977,-0.0756 5.1704,0.32788 1.53346,0.32122 2.65329,1.2762 3.37967,2.64825 0.48425,0.88779 0.58009,1.86215 0.58009,2.74913 l 0,1.38718 c -0.0807,0.24293 -0.0958,0.3876 -0.17655,0.63054 0,0.48506 0.17151,0.89445 0.65576,1.13496 0.56496,0.32203 1.44266,0.40354 2.97613,0.40354 0.32283,0 0.89284,-0.0815 1.5385,-0.40354 0.64567,-0.24212 1.14001,-0.32788 1.46285,-0.32788 0.80708,0 1.68479,0.24798 2.57258,0.73142 0.96851,0.56496 1.46285,1.2863 1.46285,2.09338 0,0.32203 -0.33293,0.65576 -1.0593,1.0593 -0.56496,0.40355 -1.13497,0.55487 -1.53851,0.55487 0.0807,0.32203 0.32283,0.80709 0.80708,1.61418 0.48426,0.80708 0.73143,1.38132 0.73143,1.86638 0,1.21063 -0.24213,2.25056 -0.80709,2.97613 -0.32283,0.48506 -0.97859,0.98364 -1.86639,1.38718 -0.88779,0.56496 -1.52841,0.86842 -1.68983,1.10974 -0.56496,0.48425 -0.80709,1.13497 -0.80709,1.94205 0,0.80709 1.29134,2.35568 4.03543,4.61552 2.50197,2.26065 3.7933,3.37967 4.03543,3.37967 0.8886,0 1.61922,-0.47497 2.34559,-1.36195 0.8878,-1.45276 1.52842,-2.50197 2.09338,-3.22835 1.69569,-2.42125 3.7933,-3.95391 6.45669,-4.43897 0.72637,-0.0807 1.46284,-0.17655 2.26993,-0.17655 0.72476,0 2.25984,0.88275 4.43897,2.90047 2.25984,2.01771 3.9531,2.92568 5.24605,2.92568 1.37044,0 2.25137,-1.4586 2.97613,-4.3633 0.40355,-3.14683 0.71972,-4.84252 0.88275,-5.24606 0.64567,-1.21063 1.39223,-2.09923 2.1186,-2.8248 0.32284,-0.24213 0.87932,-0.63982 1.7655,-1.28629 0.64567,-0.32203 1.04417,-0.73143 1.2863,-1.13497 0.24374,-0.64567 0.40354,-1.46284 0.40354,-2.67347 0,-1.8571 -1.45941,-3.86554 -4.36331,-6.20447 -0.88941,-0.80709 -2.01105,-1.60751 -3.30401,-2.49692 -0.40354,-0.24213 -0.70963,-0.49434 -1.03407,-0.65576 -1.37205,-1.61417 -2.74914,-3.30401 -3.95977,-5.32172 l -0.0756,0 c -1.61417,-2.74409 -2.75761,-4.67182 -3.4049,-5.80093 -1.21062,-2.01771 -2.41621,-3.48984 -3.70755,-4.53986 -1.61417,-1.29214 -3.62684,-2.08995 -6.1288,-2.57258 l -2.49692,0 c 0.56496,1.1283 0.32283,1.76973 -0.80709,2.09338 -0.40354,0 -1.47293,0.0756 -3.32923,0.0756 -1.8563,0 -3.6218,-0.14467 -5.39738,-0.63054 -2.98622,-0.72476 -5.89677,-2.18841 -8.80228,-4.28764 -4.27756,-2.90551 -8.15661,-7.11244 -11.62708,-12.3585 -0.40354,-1.21063 -0.88275,-2.32037 -1.28629,-3.531 -0.40355,-1.04921 -0.71125,-2.03365 -1.03408,-3.00135 -0.8878,-3.06773 -1.87648,-7.41853 -2.92569,-12.98903 -0.16142,-1.21063 -0.31779,-2.25984 -0.47921,-3.22835 -0.80708,-4.19684 -1.45275,-7.24864 -2.01771,-9.10493 -1.12992,-4.19685 -2.72896,-7.60517 -4.66596,-10.18946 l 0,3.00135 -1.0593,0 c -2.01772,-3.71259 -3.55118,-6.54748 -4.43898,-8.32307 -1.61417,-3.14764 -2.41116,-6.30536 -2.57258,-9.13016 -0.242131,-4.6811 -0.645671,-7.96997 -1.210631,-9.98768 -1.21063,-3.79331 -3.07701,-6.07332 -5.90181,-6.55758 -0.40355,-0.0823 -0.80205,-0.0756 -1.2863,-0.0756 -0.32283,0 -2.18922,0.64728 -5.49827,2.01771 -3.30905,1.29296 -5.32172,2.01772 -6.12881,2.01772 -2.01771,0 -3.38976,-0.16646 -4.03542,-0.32788 -1.21063,-0.40354 -1.86639,-1.27782 -1.86639,-2.64825 0,-1.05083 0.41363,-1.79072 1.0593,-2.19426 0.80709,-0.48587 1.21063,-1.10975 1.21063,-1.91683 -1.04921,-2.25984 -2.17913,-4.61552 -3.22834,-7.03678 -0.80709,-2.01772 -1.45276,-3.77313 -2.01772,-5.14517 l -0.25221,0 c -0.14124,0 -0.25978,-0.006 -0.40355,0.0252 0.14377,-0.0316 0.26231,-0.0504 0.40355,-0.0504 l 0.25221,0 c -0.64567,-1.93701 -1.0593,-3.31067 -1.0593,-4.03543 0,-1.12992 0.25222,-3.55118 0.65576,-7.26377 0.56496,-3.87402 0.80708,-5.97244 0.80708,-6.45669 0.64567,-0.72638 0.64567,-1.53346 0,-2.42126 -0.56496,-0.72637 -0.80708,-1.20477 -0.80708,-1.68983 0,-0.32203 0.0706,-0.65576 0.15133,-1.0593 0.24212,-0.32122 0.25221,-0.56416 0.25221,-0.80709 1.37205,0.0823 2.25984,-0.15556 2.8248,-0.88275 0.48425,-0.48506 0.797,-1.4578 0.95842,-2.74913 0.0807,-1.53185 0.24212,-2.72392 0.40354,-3.531 0.24212,-1.37205 0.73646,-2.42126 1.46284,-3.22835 0.24213,-0.40354 0.64567,-1.30223 1.21063,-2.67347 0.56496,-1.45356 1.12992,-2.50862 1.61417,-3.15268 0.8878,-1.21063 1.85125,-1.93115 2.90047,-2.09338 0.32283,-0.0815 0.49434,-0.23708 0.65575,-0.4792 0.0807,-0.24213 0.227,-0.97436 0.227,-1.94205 0,-0.23625 -0.16455,-1.04655 -0.40355,-2.32037 0.002,-0.007 0,-0.0159 0,-0.0252 l 0,-0.7062 c -0.32283,-1.69488 -0.40354,-2.75256 -0.40354,-3.07701 0,-0.56496 1.69488,-4.60543 5.24606,-12.03062 3.63188,-7.58499 5.49827,-11.45053 5.49827,-11.85407 0.9685,-3.06854 1.94709,-5.6496 3.07701,-7.66732 0.56496,-0.9685 1.60409,-2.26993 2.97613,-3.8841 0.968501,-1.21063 1.614171,-2.40269 2.017721,-3.531 0.56496,-1.61417 0.80708,-3.87905 0.80708,-6.78456 0,-0.40354 -0.16646,-1.86296 -0.73142,-4.36331 -0.48425,-2.42126 -0.73142,-4.43231 -0.73142,-6.12881 -0.16142,-0.16141 -0.38337,-0.16807 -0.7062,-0.32787 -1.049211,-0.24294 -1.694881,-0.32788 -2.017721,-0.32788 -0.64566,0 -1.45275,0.31698 -2.42125,0.88275 -1.04921,0.64647 -1.70497,1.0593 -2.26993,1.0593 -0.8878,0 -1.69488,-0.49515 -2.42126,-1.46285 -0.64567,-0.80708 -1.45275,-1.29214 -2.42126,-1.21062 z M 60.273544,397.71672 c 0.121062,0 0.250952,0.0366 0.403542,0.0756 -0.15259,-0.0392 -0.28248,-0.0504 -0.403542,-0.0504 -0.221949,0 -0.456824,0.002 -0.680979,0.0252 0.224155,-0.023 0.45903,-0.0504 0.680979,-0.0504 z m 6.229691,0.78186 c -0.16394,0.10215 -0.32283,0.23708 -0.50443,0.37832 -0.36319,0.20177 -0.69611,0.34301 -0.95841,0.45399 0.2623,-0.11098 0.59522,-0.27744 0.95841,-0.47921 0.1816,-0.14124 0.34049,-0.25095 0.50443,-0.3531 z m -16.09127,1.74028 c 0.26775,0.18495 0.49101,0.37246 0.7062,0.58009 -0.21186,-0.20293 -0.443897,-0.3989 -0.7062,-0.58009 z m 22.67406,41.23704 c -0.32283,0.0807 -0.55487,0.16646 -0.95841,0.32787 0.40354,-0.16141 0.63558,-0.24878 0.95841,-0.32787 z m 16.29305,52.6119 c 0.74655,0.2623 1.59399,0.56072 2.52214,0.88275 0.9685,0.34301 1.84495,0.65449 2.62303,0.90797 -0.77808,-0.25348 -1.65453,-0.53974 -2.62303,-0.88275 -0.92815,-0.32284 -1.77559,-0.64587 -2.52214,-0.90797 z m 7.1881,2.42125 c 0.885265,0.2497 1.573345,0.39298 2.042935,0.45399 0.15653,0.0203 0.29257,0.0252 0.40354,0.0252 l 0.63054,0 c -0.004,0.004 0.004,0.0215 0,0.0252 l -0.63054,0 c -0.11097,0 -0.24701,-0.0301 -0.40354,-0.0504 -0.46959,-0.061 -1.15767,-0.20429 -2.042935,-0.45399 z m 42.598995,17.27668 c -0.04,0.40922 -0.10877,0.79132 -0.227,1.13497 0.11823,-0.34365 0.18696,-0.72575 0.227,-1.13497 z"
   id="ภาคใต้"
   inkscape:label="#ภาคใต้"
   inkscape:connector-curvature="0" />




















<g
   id="map"
   transform="matrix(0.80708571,0,0,0.80708571,-104.22061,-47.618057)">



	<path
   d="m 333.7,416.1 c 3.1,0.602 6.1,2 9.1,4.302 3.4,2.6 6.2,5.8 8.4,9.6 1.1,1.9 2.3,3.6 3.5,5"
   id="path85"
   style="fill:none;stroke:#383838;stroke-width:2;stroke-linecap:round;stroke-linejoin:round;stroke-miterlimit:4;stroke-opacity:1;stroke-dasharray:none"
   inkscape:connector-curvature="0" />
	<path
   d="m 354.7,435 c 1.5,1.9 3.1,3.3 4.6,4.4 1.102,0.698 2.5,1.5 4.4,2.398 3.398,1.5 5.2,2.3 5.5,2.5 0,-0.898 0,-1.7 0,-2.1 0,-0.8 0.2,-1.4 0.398,-2.102 h 1 c 1,1 2.602,2.9 4.802,5.7 2.1,2.2 3.8,3.4 5.198,3.5 V 448.4 c -0.8,-0.802 -1.6,-1.602 -2.3,-2.302 -1.2,-1.5 -1.898,-3 -1.898,-4.3 0,-0.898 0.398,-2.898 1.3,-6.398 0.7,-3.2 1.1,-4.802 1.1,-4.802 0,-1.698 -0.5,-3.398 -1.6,-5 -0.4,-0.6 -1.602,-2 -3.5,-4 -1.8,-1.8 -3,-3.5 -3.9,-5 -0.6,-1.198 -1.2,-2.6 -1.6,-4"
   id="path89"
   style="fill:none;stroke:#383838;stroke-width:2;stroke-linecap:round;stroke-linejoin:round;stroke-miterlimit:4;stroke-opacity:1;stroke-dasharray:none"
   inkscape:connector-curvature="0" />
	<path
   d="m 368.2,412.6 c -0.4,-1.198 -0.7,-2.398 -0.9,-3.698 -0.1,-1.2 -1.5,-4.9 -3.898,-11 -2,-5.102 -3.2,-9 -3.4,-11.801"
   id="path91"
   style="fill:none;stroke:#383838;stroke-width:2;stroke-linecap:round;stroke-linejoin:round;stroke-miterlimit:4;stroke-opacity:1;stroke-dasharray:none"
   inkscape:connector-curvature="0" />

	<path
   d="m 437.1,340.9 c 1.602,-0.1 3.5,-0.6 5.7,-1.5 2.4,-1.2 4,-1.7 4.7,-1.7 0.1,0 0.7,0.3 2,0.9 1.3,0.7 2.1,1 2.4,1 h 4.698 c 2.802,0 5.302,-0.5 7.7,-1.6 2.3,-1.1 4.4,-1.7 6.102,-1.7 1.698,0 3.3,0.1 4.5,0.5"
   id="path95"
   style="fill:none;stroke:#383838;stroke-width:2;stroke-linecap:round;stroke-linejoin:round;stroke-miterlimit:4;stroke-opacity:1;stroke-dasharray:none"
   inkscape:connector-curvature="0" />
	<path
   d="m 418.6,336.6 h 0.102 c 0.398,-0.2 0.898,-0.3 1.2,-0.3 0.198,0 2.698,0.8 7.5,2.3 5,1.6 8,2.3 9,2.3 0.198,0 0.5,0 0.698,0"
   id="path97"
   style="fill:none;stroke:#383838;stroke-width:2;stroke-linecap:round;stroke-linejoin:round;stroke-miterlimit:4;stroke-opacity:1;stroke-dasharray:none"
   inkscape:connector-curvature="0" />


	<path
   d="m 400.6,340.1 c 0.2,-0.1 0.5,-0.2 0.802,-0.2 2,-0.5 4.898,-1 8.898,-1.8 2.8,-0.5 5.57977,-0.88055 7.57977,-1.18055"
   id="path103"
   style="fill:none;stroke:#383838;stroke-width:2;stroke-linecap:round;stroke-linejoin:round;stroke-miterlimit:4;stroke-opacity:1;stroke-dasharray:none"
   sodipodi:nodetypes="cccc"
   inkscape:connector-curvature="0" />
	<path
   d="m 149.1,183 c -0.2,-0.1 -0.2,-0.3 -0.3,-0.5"
   id="path105"
   style="fill:none;stroke:#f9f9f9;stroke-linecap:round;stroke-linejoin:round"
   inkscape:connector-curvature="0" />
	<path
   d="m 149.6,182.6 c 0.2,0.3 0.3,0.5 0.5,0.8"
   id="path107"
   style="fill:none;stroke:#f9f9f9;stroke-linecap:round;stroke-linejoin:round"
   inkscape:connector-curvature="0" />
	<path
   d="m 149.6,182.6 c -0.2,0.1 -0.4,0.3 -0.5,0.4"
   id="path109"
   style="fill:none;stroke:#f9f9f9;stroke-linecap:round;stroke-linejoin:round"
   inkscape:connector-curvature="0" />
	<path
   d="m 228.2,494.2 c 0,-0.3 0,-0.5 0,-0.9 -0.4,-2.1 -0.5,-3.398 -0.5,-3.8 0,-0.7 2.1,-5.7 6.5,-14.9 4.5,-9.398 6.8,-14.198 6.8,-14.698 1.2,-3.802 2.4,-7 3.8,-9.5 0.7,-1.2 2,-2.802 3.7,-4.802 1.2,-1.5 2,-3 2.5,-4.398 0.7,-2 1,-4.8 1,-8.4 0,-0.5 -0.2,-2.3 -0.9,-5.398 -0.6,-3 -0.9,-5.5 -0.9,-7.602"
   id="path111"
   style="fill:none;stroke:#383838;stroke-width:2;stroke-linecap:round;stroke-linejoin:round;stroke-miterlimit:4;stroke-opacity:1;stroke-dasharray:none"
   inkscape:connector-curvature="0" />
	<path
   d="m 212,491.2 c 2.4,-2.101 4.2,-4.101 5.2,-6 0.9,-1.8 2.5,-4.4 4.8,-8 2.1,-3.102 3.5,-5.5 4.3,-7.102 0.4,-1 1.2,-1.898 2.2,-2.698 1.4,-0.9 2.5,-1.602 3.1,-2.2 2.6,-1.9 3.9,-4.3 3.9,-7.102 0,-1.6 -0.7,-4.5 -2.3,-8.698 -1.2,-3.802 -2.2,-6 -2.7,-7 -0.7,-1 -1.8,-3.602 -3.4,-7.802 -1.4,-3.8 -2.1,-6 -2.1,-6.398 0,-0.3 0.2,-1.102 0.7,-2.3 0.4,-1.2 0.6,-2 0.6,-2.302 0,-1.398 -0.3,-2.5 -1.1,-3.3"
   id="path113"
   style="fill:none;stroke:#383838;stroke-width:2;stroke-linecap:round;stroke-linejoin:round;stroke-miterlimit:4;stroke-opacity:1;stroke-dasharray:none"
   inkscape:connector-curvature="0" />

	<path
   d="m 200,503.7 2.8,-2.101 c 1.2,-0.899 2,-2 2.4,-3.101 0.7,-1.8 2.5,-3.8 5.5,-6.2 0.4,-0.3 0.8,-0.6 1.3,-1.1"
   id="path117"
   style="fill:none;stroke:#383838;stroke-width:2;stroke-linecap:round;stroke-linejoin:round;stroke-miterlimit:4;stroke-opacity:1;stroke-dasharray:none"
   inkscape:connector-curvature="0" />
	<path
   d="m 178.4,569.1 c 0,-0.198 0.1,-0.3 0.1,-0.3 0.9,-3.3 1.5,-5.6 2,-7 1.6,-6.7 3,-11.6 3.8,-14.7 1.5,-5.398 3.2,-9.5 5.3,-12.3 1,-1.398 2,-3.5 3.2,-6.3 2.2,-5.399 3.3,-9.3 3.3,-11.899 0,-0.399 -0.1,-1.301 -0.5,-2.699 -0.3,-1.301 -0.4,-2.2 -0.4,-2.602 0,-2.898 1.4,-5.3 4.3,-7.398 0.2,-0.102 0.3,-0.102 0.5,-0.2"
   id="path119"
   style="fill:none;stroke:#383838;stroke-width:2;stroke-linecap:round;stroke-linejoin:round;stroke-miterlimit:4;stroke-opacity:1;stroke-dasharray:none"
   inkscape:connector-curvature="0" />

	<path
   d="m 213.5,552.2 c -0.8,-2.4 -1.3,-4.102 -1.3,-5 0,-1.4 0.3,-4.4 0.8,-9 0.7,-4.8 1,-7.4 1,-8 0.8,-0.9 0.8,-1.9 0,-3 -0.7,-0.9 -1,-1.5 -1,-2.101 0,-0.399 0.1,-0.801 0.2,-1.301 0.3,-0.398 0.3,-0.699 0.3,-1 1.7,0.102 2.8,-0.199 3.5,-1.1 0.6,-0.601 1,-1.8 1.2,-3.4 0.1,-1.898 0.3,-3.398 0.5,-4.398 0.3,-1.7 0.9,-3 1.8,-4 0.3,-0.5 0.8,-1.602 1.5,-3.301 0.7,-1.801 1.4,-3.101 2,-3.899 1.1,-1.5 2.3,-2.4 3.6,-2.601 0.4,-0.101 0.6,-0.301 0.8,-0.601 0.1,-0.3 0.3,-1.2 0.3,-2.399 0,-0.301 -0.2,-1.301 -0.5,-2.899"
   id="path123"
   style="fill:none;stroke:#383838;stroke-width:2;stroke-linecap:round;stroke-linejoin:round;stroke-miterlimit:4;stroke-opacity:1;stroke-dasharray:none"
   inkscape:connector-curvature="0" />



	<path
   d="m 240.5,571.2 c -0.5,-0.102 -1,-0.102 -1.6,-0.102 -0.4,0 -2.7,0.802 -6.8,2.5 -4.1,1.602 -6.6,2.5 -7.6,2.5 -2.5,0 -4.2,-0.198 -5,-0.398 -1.5,-0.5 -2.3,-1.602 -2.3,-3.3 0,-1.302 0.5,-2.2 1.3,-2.7 1,-0.602 1.5,-1.4 1.5,-2.4 -1.3,-2.8 -2.7,-5.7 -4,-8.7 -1,-2.5 -1.8,-4.698 -2.5,-6.398"
   id="path131"
   style="fill:none;stroke:#383838;stroke-width:2;stroke-linecap:round;stroke-linejoin:round;stroke-miterlimit:4;stroke-opacity:1;stroke-dasharray:none"
   inkscape:connector-curvature="0" />


	<path
   d="m 189.5,613.7 c -0.5,-0.3 -1,-0.4 -1.5,-0.4 -2.2,0 -4.2,1.2 -6.1,3.7 -1.9,2.4 -2.9,5.101 -2.9,8 0,0.3 0.3,0.601 0.8,0.9 0.4,0.3 0.7,0.8 0.7,1.398 0,0.4 -0.2,0.9 -0.5,1.602 -0.3,0.7 -0.5,1.3 -0.5,1.6 0,0.7 0.3,1.5 0.7,2.3 0.5,0.9 0.8,1.7 0.8,2.301 0,0.699 -0.6,2.101 -1.9,4.399 -1.2,2.4 -2.2,3.7 -2.8,3.7 -1.2,0 -2.1,-0.7 -2.8,-1.9 -0.6,-1.1 -0.9,-2.5 -0.9,-4.1 0,-2.7 -0.2,-8.7 -0.6,-18 -0.5,-8.9 -0.8,-13.4 -0.8,-13.5 0,-1.7 0.6,-4.4 1.7,-8.102 1.1,-3.398 1.6,-5.1 1.6,-5.198 -0.5,-0.802 -1,-1.802 -1.4,-2.802 -0.9,-2.198 -1.3,-3.8 -1.3,-5 0,-2.8 0.2,-4.5 0.5,-5.198 1.1,-1.2 2.2,-2.802 3.6,-4.602 0.8,-1.2 1.6,-3.1 2.5,-5.7"
   id="path137"
   style="fill:none;stroke:#383838;stroke-width:2;stroke-linecap:round;stroke-linejoin:round;stroke-miterlimit:4;stroke-opacity:1;stroke-dasharray:none"
   inkscape:connector-curvature="0" />


	<path
   d="m 438.5,160.5 c -0.4,-0.5 -0.9,-0.9 -1.5,-1.4 -1.5,-1.2 -2.6,-1.8 -3.4,-1.8 -0.3,0 -0.698,0.2 -1.398,0.5 -0.602,0.2 -1.102,0.4 -1.602,0.4 -1.198,0 -2.698,-0.3 -4.398,-1 -0.7,-0.2 -2.3,-1 -4.602,-2 -4.3,-2 -7.8,-3 -10.698,-3 -0.9,0 -2.4,0.4 -4.5,1 -2.2,0.8 -3.602,1.5 -4.2,2.3 0.2,0.1 0.398,0.3 0.898,0.5 0.5,0.1 0.802,0.2 1,0.4 v 2.3 c -1.198,-0.2 -2.3,-0.1 -3.5,0.2 -1.3,0.2 -2.3,0.6 -3,1.2 0,0.3 0.2,0.7 0.5,1.4 0.302,0.6 0.5,1.1 0.5,1.5 0,0.5 -0.3,0.9 -0.698,1.1 -0.7,0.4 -1.302,0.6 -1.7,0.8 -1.5,0.7 -2.3,1.9 -2.3,3.5 0.1,1.8 -0.5,2.8 -1.802,3.1 -2,-0.1 -3.5,-0.1 -4.5,0 -2.898,0.4 -5.8,1.4 -8.398,3 -3.3,2.1 -4.8,4.3 -4.5,6.6 -1.102,-0.2 -1.9,-0.5 -2.2,-0.6 -0.7,-0.3 -1.1,-0.7 -1.1,-1.4 0,-0.3 0.198,-1 0.5,-1.9 0.3,-1 0.398,-1.6 0.398,-2 0,-2 -1.5,-3.4 -4.6,-4.4 -3.4,-0.8 -5.3,-1.3 -5.9,-1.6 -2.3,-1.3 -4.398,-2.5 -6.1,-3.6 -2.9,-1.6 -4.9,-2.5 -5.9,-2.7"
   id="path143"
   style="fill:none;stroke:#383838;stroke-width:2;stroke-linecap:round;stroke-linejoin:round;stroke-miterlimit:4;stroke-opacity:1;stroke-dasharray:none"
   inkscape:connector-curvature="0" />


	<path
   d="m 217.8,648.101 c -1.3,-2.199 -3.3,-3.601 -5.6,-4 -0.2,0.899 -0.3,2.301 -0.3,4.101 0,1.899 -0.1,3.3 -0.2,4.1 h -1.4 c -1,-1.5 -1.6,-3.6 -2.1,-6.398 -0.3,-3.2 -0.5,-5.7 -0.7,-7.102 -0.4,-2.699 -1,-4.6 -1.6,-5.699 -0.9,-1.5 -2.4,-2.101 -4.3,-1.899 -1.3,0.2 -2.6,-0.601 -3.8,-2.4 -0.6,-1.199 -1.6,-3.3 -2.8,-6.3 -1.3,-3 -2.3,-5.2 -3,-6.3 -0.8,-1.2 -1.6,-2.101 -2.5,-2.5"
   id="path149"
   style="fill:none;stroke:#383838;stroke-width:2;stroke-linecap:round;stroke-linejoin:round;stroke-miterlimit:4;stroke-opacity:1;stroke-dasharray:none"
   inkscape:connector-curvature="0" />
	<path
   d="m 267.6,633.5 c -1,-5.2 -1.8,-9 -2.5,-11.3 -1.4,-5.2 -3.4,-9.4 -5.8,-12.602 v 3.7 H 258 c -2.5,-4.6 -4.4,-8.1 -5.5,-10.3 -2,-3.9 -3,-7.8 -3.2,-11.3 -0.3,-5.8 -0.8,-9.9 -1.5,-12.4 -1.5,-4.7 -3.8,-7.5 -7.3,-8.1"
   id="path151"
   style="fill:none;stroke:#383838;stroke-width:2;stroke-linecap:round;stroke-linejoin:round;stroke-miterlimit:4;stroke-opacity:1;stroke-dasharray:none"
   inkscape:connector-curvature="0" />
	<path
   d="m 300,682.3 c -3.7,-0.898 -7.3,-2.699 -10.9,-5.3 -5.3,-3.6 -10.1,-8.8 -14.4,-15.3 -0.5,-1.5 -1.1,-2.9 -1.6,-4.4 -0.5,-1.3 -0.9,-2.5 -1.3,-3.699 -1.1,-3.801 -2.3,-9.199 -3.6,-16.101 -0.2,-1.5 -0.4,-2.8 -0.6,-4"
   id="path153"
   style="fill:none;stroke:#383838;stroke-width:2;stroke-linecap:round;stroke-linejoin:round;stroke-miterlimit:4;stroke-opacity:1;stroke-dasharray:none"
   inkscape:connector-curvature="0" />








	<path
   d="m 291.8,709.8 c 0,-0.699 0,-1.3 0,-1.699 0,-1.101 -0.1,-2.301 -0.7,-3.399 -0.9,-1.7 -2.3,-2.9 -4.2,-3.3 -1.5,-0.5 -3.6,-0.602 -6.4,-0.4 -3.9,0.2 -8.1,-0.5 -12.3,-2.2 -1.1,-0.5 -1.8,-1.199 -2.1,-2.3 -0.2,-0.399 -0.2,-1.3 -0.2,-2.7 -0.1,-1.1 -0.3,-1.8 -0.7,-2.3 -0.5,-0.6 -1.5,-1 -3.1,-1 0,0 -0.1,0 -0.2,0"
   id="path171"
   style="fill:none;stroke:#383838;stroke-width:2;stroke-linecap:round;stroke-linejoin:round;stroke-miterlimit:4;stroke-opacity:1;stroke-dasharray:none"
   inkscape:connector-curvature="0" />
	<path
   d="m 261.9,690.5 c -1,0 -1.6,0.601 -1.9,1.601 -0.2,0.801 -0.2,2 -0.2,3.899 0.1,1.9 0,3.101 -0.1,3.8 -0.3,1 -0.8,1.602 -1.7,1.7 -1.3,-1.399 -3.3,-3.5 -6,-6.5 -3,-3.3 -5.3,-5.8 -6.8,-7.3 -3.3,-3.3 -5.4,-7.601 -6.5,-12.601 -0.5,-2.399 -0.8,-3.801 -0.9,-4.199 -0.1,-0.2 -0.1,-0.4 -0.3,-0.5"
   id="path173"
   style="fill:none;stroke:#383838;stroke-width:2;stroke-linecap:round;stroke-linejoin:round;stroke-miterlimit:4;stroke-opacity:1;stroke-dasharray:none"
   inkscape:connector-curvature="0" />
	<path
   d="m 237.5,670.4 c -0.4,-0.7 -1,-1.102 -1.7,-1.102 -1.5,0 -4,-1.6 -7.6,-4.8 -3.1,-2.899 -5,-4.8 -5.5,-5.7 -0.7,-1.3 -1.5,-3 -2.2,-5 -1,-2.3 -1.6,-3.8 -1.8,-4.398 -0.3,-0.4 -0.6,-0.9 -0.9,-1.301"
   id="path175"
   style="fill:none;stroke:#383838;stroke-width:2;stroke-linecap:round;stroke-linejoin:round;stroke-miterlimit:4;stroke-opacity:1;stroke-dasharray:none"
   inkscape:connector-curvature="0" />

	<path
   d="m 331.3,696.4 c -2,-3.4 -3.398,-5.801 -4.2,-7.2 -1.5,-2.5 -3,-4.3 -4.6,-5.601 -2,-1.601 -4.5,-2.601 -7.6,-3.199 h -3.1 c 0.7,1.398 0.4,2.199 -1,2.6 -0.5,0 -1.8,0.101 -4.1,0.101 -2.3,0 -4.5,-0.199 -6.7,-0.801"
   id="path179"
   style="fill:none;stroke:#383838;stroke-width:2;stroke-linecap:round;stroke-linejoin:round;stroke-miterlimit:4;stroke-opacity:1;stroke-dasharray:none"
   inkscape:connector-curvature="0" />
	<path
   d="m 320.6,729.3 c -3.3,0.601 -5.899,2.5 -8,5.5 -0.699,0.9 -1.5,2.2 -2.6,4 -0.9,1.101 -1.8,1.7 -2.9,1.7 -0.3,0 -1.899,-1.399 -5,-4.2 -3.4,-2.8 -5,-4.699 -5,-5.699 0,-1 0.3,-1.801 1,-2.399 0.2,-0.301 1,-0.7 2.1,-1.4 1.1,-0.5 1.9,-1.1 2.3,-1.699 0.7,-0.899 1,-2.2 1,-3.7 0,-0.601 -0.3,-1.3 -0.9,-2.3 -0.6,-1 -0.9,-1.601 -1,-2 0.5,0 1.2,-0.2 1.9,-0.7 0.9,-0.5 1.3,-0.899 1.3,-1.3 0,-1 -0.6,-1.899 -1.8,-2.601 -1.1,-0.601 -2.2,-0.899 -3.2,-0.899 -0.4,0 -1,0.101 -1.8,0.399 -0.8,0.399 -1.5,0.5 -1.9,0.5 -1.9,0 -3,-0.101 -3.7,-0.5 -0.6,-0.3 -0.8,-0.8 -0.8,-1.399 0.1,-0.301 0.1,-0.5 0.2,-0.801"
   id="path181"
   style="fill:none;stroke:#383838;stroke-width:2;stroke-linecap:round;stroke-linejoin:round;stroke-miterlimit:4;stroke-opacity:1;stroke-dasharray:none"
   inkscape:connector-curvature="0" />




	<path
   d="m 320.6,729.3 c 0.9,-0.1 1.801,-0.199 2.801,-0.199 0.898,0 2.8,1.101 5.5,3.601 2.8,2.5 4.898,3.6 6.5,3.6 1.698,0 2.8,-1.8 3.698,-5.399 0.5,-3.899 0.9,-6 1.102,-6.5 0.8,-1.5 1.7,-2.601 2.6,-3.5 0.4,-0.3 1.102,-0.8 2.2,-1.601 0.8,-0.399 1.3,-0.899 1.6,-1.399 0.302,-0.8 0.5,-1.8 0.5,-3.3 0,-2.301 -1.8,-4.801 -5.398,-7.699 -1.102,-1 -2.5,-2 -4.102,-3.102 -0.5,-0.3 -0.898,-0.6 -1.3,-0.8 -1.7,-2 -3.398,-4.1 -4.898,-6.6 -0.102,0 -0.102,0 -0.102,0"
   id="path191"
   style="fill:none;stroke:#383838;stroke-width:2;stroke-linecap:round;stroke-linejoin:round;stroke-miterlimit:4;stroke-opacity:1;stroke-dasharray:none"
   inkscape:connector-curvature="0" />

	<path
   d="m 483.5,257.4 c -0.1,-0.3 -0.1,-0.5 -0.1,-0.6 -0.602,-2.2 -1,-3.7 -1.302,-4.7 -0.3,-0.8 -0.5,-1.5 -0.898,-2.1"
   id="path195"
   style="fill:none;stroke:#383838;stroke-width:2;stroke-linecap:round;stroke-linejoin:round;stroke-miterlimit:4;stroke-opacity:1;stroke-dasharray:none"
   inkscape:connector-curvature="0" />
	<path
   d="m 485.1,258 c -0.698,-0.2 -1.198,-0.4 -1.6,-0.6"
   id="path197"
   style="fill:none;stroke:#f9f9f9;stroke-linecap:round;stroke-linejoin:round"
   inkscape:connector-curvature="0" />
	<path
   d="m 485.1,258 c -0.198,0.4 -0.398,0.8 -0.698,1.2"
   id="path199"
   style="fill:none;stroke:#f9f9f9;stroke-linecap:round;stroke-linejoin:round"
   inkscape:connector-curvature="0" />
	<path
   d="m 484.4,259.2 c -0.302,-0.4 -0.602,-1.1 -0.9,-1.8"
   id="path201"
   style="fill:none;stroke:#383838;stroke-width:2;stroke-linecap:round;stroke-linejoin:round;stroke-miterlimit:4;stroke-opacity:1;stroke-dasharray:none"
   inkscape:connector-curvature="0" />

	<path
   d="m 474.9,336.8 c 1.198,0.2 2.198,0.6 2.898,1.1 1.102,0.7 1.8,1.8 2.3,3.3 0.5,1.9 1,3 1.102,3.3 0.7,0.9 2,1.4 3.898,1.4 1,0 1.9,-0.2 2.5,-0.8 0.4,-0.3 0.802,-1 1.302,-1.8 0.398,-1.1 0.698,-1.8 1,-2.2 0.6,-0.7 1.3,-1.2 2.3,-1.5 3.3,-1 5.398,-1.6 6.2,-2 1.398,-0.5 3.198,-1.4 5.3,-2.7 1.1,-0.5 1.7,-2.1 1.898,-4.8 0,-1.5 0.102,-2.7 0.102,-3.5 0.1,-1.4 0.2,-2.4 0.398,-3.1 0.302,-1.9 1,-4.1 2.2,-6.6 0.9,-2 1.3,-3.5 1.3,-4.4 0,-1.1 -1,-2.7 -2.898,-4.9 -2,-2.2 -3,-3.6 -3,-4.3 0,-1.1 0.3,-1.9 0.898,-2.4 0.302,-0.3 1,-0.6 1.9,-0.9 0.899,-0.2 1.6,-0.4 1.899,-0.7 0.5,-0.4 0.801,-1.1 0.801,-1.9 0,-0.9 -0.102,-1.5 -0.2,-1.8 -0.101,-0.1 -0.4,-0.2 -0.9,-0.2 -1.898,0 -3.3,0 -4.398,-0.4 v -2.3 c 0.8,-0.2 1.898,-0.4 3.398,-0.6 1,-0.5 1.602,-1.7 1.7,-3.5 0,-0.8 0.4,-2 1.3,-3.5 1,-1.5 1.5,-2.7 1.5,-3.4 0,-2.8 -0.698,-4.7 -2.198,-5.6 -0.802,-0.4 -2.302,-0.5 -4.5,-0.3 -2.302,0.1 -3.802,0 -4.602,-0.5 -1.398,-0.9 -2.1,-2.7 -2.1,-5.6 0,-0.8 0.398,-1.6 1.398,-2.5 0.9,-0.8 1.301,-1.7 1.301,-2.5 0,-1.3 -2.5,-2.6 -7.699,-4.3 -2.801,-0.8 -4.7,-1.3 -5.801,-1.7 -0.899,-0.3 -1.601,-0.5 -2.301,-0.7"
   id="path205"
   style="fill:none;stroke:#383838;stroke-width:2;stroke-linecap:round;stroke-linejoin:round;stroke-miterlimit:4;stroke-opacity:1;stroke-dasharray:none"
   inkscape:connector-curvature="0" />


	<path
   d="m 349.8,162.9 c -0.1,0 -0.2,0 -0.398,0 -1.602,0 -3.602,1.1 -6.102,3.6 -1.398,1.4 -2.2,2.3 -2.5,2.5 -0.898,0.8 -1.6,1.1 -2.1,1.1 -0.4,0 -0.9,-0.2 -1.9,-0.9 -0.898,-0.6 -1.6,-0.8 -2.3,-0.8 -0.4,0 -0.8,0 -1.1,0.1 -0.2,0.2 -0.5,0.3 -0.602,0.3 -0.1,1.8 -0.7,3.3 -1.6,4.4 -0.9,1.1 -2.102,2 -3.9,2.9 -1.2,0.7 -2.5,1.9 -3.7,3.9 -1.5,2.1 -2.5,3.5 -3.199,3.9 -1.4,1.1 -4.5,3.3 -9.2,6.5 -3.101,2 -5.4,3.9 -7,5.7 -1.1,-0.1 -2.4,-0.4 -4,-1 -1.9,-0.6 -3.1,-1.5 -3.6,-2.5"
   id="path211"
   style="fill:none;stroke:#383838;stroke-width:2;stroke-linecap:round;stroke-linejoin:round;stroke-miterlimit:4;stroke-opacity:1;stroke-dasharray:none"
   inkscape:connector-curvature="0" />




	<path
   d="m 332.8,230.4 c 0,-0.8 -0.6,-1.7 -1.898,-2.5 -1.2,-0.9 -1.802,-1.9 -1.7,-3.1 0.2,-2.6 0.2,-4.2 0.1,-5 -0.1,-1.8 -0.7,-2.8 -2,-2.8 -1.5,0 -2.8,-0.1 -4,-0.6 -0.398,-0.2 -1.398,-0.7 -2.899,-1.4 -2.601,-1.5 -6,-2.1 -10,-2.1 -1.2,0 -2.801,1.4 -4.601,4.3 -1.2,1.8 -1.9,2.8 -2,3 -0.7,0.9 -1.2,1.4 -1.7,1.4 -0.3,0 -0.7,-0.1 -0.9,-0.5"
   id="path221"
   style="fill:none;stroke:#5e5e5e;stroke-linecap:round;stroke-linejoin:round;stroke-opacity:1"
   inkscape:connector-curvature="0" />


	<path
   d="m 443.5,170.8 c -0.6,-1 -1.1,-2.1 -1.6,-3.3 l -3.4,-7"
   id="path227"
   style="fill:none;stroke:#383838;stroke-width:2;stroke-linecap:round;stroke-linejoin:round;stroke-miterlimit:4;stroke-opacity:1;stroke-dasharray:none"
   inkscape:connector-curvature="0" />

	<path
   d="m 439.4,161.5 c -0.2,-0.4 -0.5,-0.6 -0.9,-1"
   id="path231"
   style="fill:none;stroke:#383838;stroke-width:2;stroke-linecap:round;stroke-linejoin:round;stroke-miterlimit:4;stroke-opacity:1;stroke-dasharray:none"
   inkscape:connector-curvature="0" />




	<path
   d="m 469.4,227.1 c 0,-0.3 0.198,-0.6 0.5,-0.8 0.5,-0.3 0.8,-0.7 0.8,-1.3 0,-0.3 -0.3,-1.2 -0.8,-2.8 -0.4,-1.6 -0.602,-2.5 -0.602,-2.7 0,-1.2 0.602,-3.8 1.602,-7.7 1,-4 1.6,-6.8 1.6,-8.6 0,-2.6 -0.9,-4.9 -2.6,-7 -1.2,-1.4 -3.102,-3 -5.802,-4.6 -2.898,-1.7 -5,-3 -6.198,-3.8 -2.2,-1.5 -3.602,-2.9 -4.302,-4.3 -0.8,-1.9 -2,-3.5 -3.8,-4.7 -2,-1.4 -3.5,-2.9 -4.398,-4.5 -0.602,-0.9 -1.302,-2.2 -1.9,-3.5"
   id="path241"
   style="fill:none;stroke:#383838;stroke-width:2;stroke-linecap:round;stroke-linejoin:round;stroke-miterlimit:4;stroke-opacity:1;stroke-dasharray:none"
   inkscape:connector-curvature="0" />



	<path
   d="m 271.9,92.1 c -0.1,-0.6 -0.1,-1.2 -0.1,-1.9 0.7,-1 1.6,-2.4 2.5,-4.3 2,-3.9 3.5,-8.2 4.4,-13 -2.3,-0.4 -4.9,-2.5 -8.2,-6.1 -1.5,-1.9 -2.6,-3.2 -3.2,-3.8 -1,-1.1 -1.7,-1.7 -2.1,-1.7 -0.4,0 -1.2,0.5 -2.6,1.4 -1.5,1 -2.3,1.8 -2.3,2.3 0,0.9 0.1,1.6 0.4,2.3 0.1,0.5 0.1,0.7 0.1,0.8 -0.7,0 -2,0.1 -3.7,0.4 -0.4,0 -0.9,0 -1.3,0.1 -0.1,0 -0.3,0 -0.3,0 h -0.3 c 0,0 0,0 -0.1,0 -0.7,-0.1 -1.3,-0.2 -1.7,-0.4 0,-0.8 0.3,-1.7 0.9,-2.4 0.7,-0.8 0.9,-1.4 0.9,-1.9 0,-0.9 -0.4,-1.8 -1.4,-2.6 -1,-0.9 -2.1,-1.3 -3.3,-1.3 -1.7,0 -3.2,0.2 -4.4,0.9 -0.6,0.3 -1.5,1.1 -2.6,2 -1,1 -1.8,1.7 -2.5,2.1 -1.2,0.5 -2.5,0.9 -4.1,0.9 -1.8,0 -3.4,-0.7 -4.9,-1.9 -0.7,-0.6 -1.2,-1 -1.5,-1.2 -0.5,-0.3 -1,-0.6 -1.5,-0.6 -0.5,0 -1.2,0.2 -1.8,0.3 -0.7,0.2 -1.2,0.4 -1.3,0.6 0.4,0.4 0.9,0.9 1.4,1.6 0.6,0.8 0.9,1.5 0.9,2.1 -0.1,1.2 0.4,2.2 1.5,3.1 1.1,0.9 1.7,1.5 1.7,1.7 0,0.4 -0.7,0.9 -2.1,1.6"
   id="path249"
   style="fill:none;stroke:#383838;stroke-width:2;stroke-linecap:round;stroke-linejoin:round;stroke-miterlimit:4;stroke-opacity:1;stroke-dasharray:none"
   inkscape:connector-curvature="0" />



	<path
   d="m 301.4,153.5 c -0.2,-0.4 -0.2,-0.7 -0.2,-1 0,-2.5 1.2,-4.7 3.8,-6.9 0.7,-0.6 1.7,-1.5 2.9,-2.5 1,-1 1.699,-1.9 1.899,-2.8 -0.2,0 -0.6,-0.1 -1,-0.2 -0.5,-0.1 -0.899,-0.2 -1.2,-0.2 V 138 c 1.101,-0.3 1.601,-0.5 1.7,-0.6 0.101,-0.1 0.101,-0.5 0.101,-1.3 0,-2.1 0.8,-4.5 2.199,-7 0.301,-0.6 0.7,-1.4 1.301,-2.5 0.399,-0.8 0.699,-1.6 0.699,-2.2 0,-0.8 -0.3,-1.4 -0.6,-1.9 -0.2,-0.3 -0.8,-0.7 -1.4,-1.4 -1.399,-1.1 -2,-2.6 -2.199,-4.2 -0.101,-3 -0.7,-5.1 -1.7,-6.4 -0.601,-0.7 -0.9,-1.1 -1,-1.3 -0.3,-0.6 -0.5,-1.2 -0.5,-2.2 0,-0.5 0.3,-1 0.7,-1.4 0.3,-0.1 0.8,-0.3 1.6,-0.6 1.6,-0.5 2.3,-1.5 2.3,-2.8 0,-1 -0.3,-1.9 -0.899,-2.8 -0.601,-0.9 -1.4,-1.4 -2.301,-1.4 -0.399,0 -0.8,0.2 -1.5,0.5 -0.5,0.4 -1,0.5 -1.4,0.5 -0.1,0 -1.1,-0.4 -2.9,-1.1 -1.9,-0.9 -3.4,-1.3 -4.3,-1.3 -1.6,0 -3.3,1 -5.1,3 -1.1,1.3 -1.7,1.9 -2,2 -0.6,0.7 -1.2,1 -1.8,1 -0.2,0 -0.8,-0.4 -2,-1.1 -1.3,-0.7 -2.3,-1.1 -3.1,-1.1 -0.4,0 -1.1,0.1 -1.9,0.4 -0.8,0.2 -1.4,0.4 -1.8,0.4"
   id="path257"
   style="fill:none;stroke:#383838;stroke-width:2;stroke-linecap:round;stroke-linejoin:round;stroke-miterlimit:4;stroke-opacity:1;stroke-dasharray:none"
   inkscape:connector-curvature="0" />
	<path
   d="m 279.8,101.2 c -0.1,0 -0.1,0 -0.2,0 -2.5,0 -4.5,-1.2 -5.9,-3.6 -1,-1.6 -1.6,-3.5 -1.8,-5.5"
   id="path259"
   style="fill:none;stroke:#383838;stroke-width:2;stroke-linecap:round;stroke-linejoin:round;stroke-miterlimit:4;stroke-opacity:1;stroke-dasharray:none"
   inkscape:connector-curvature="0" />


	<path
   d="m 229.3,73.2 c -1.5,1 -4,2.2 -7.3,3.8 -0.4,0 -1.2,-0.3 -2.5,-0.8 -1.2,-0.4 -2.3,-0.6 -3.5,-0.6 -3.2,0 -5.3,0.8 -6.7,2.4 -0.8,1.2 -1.4,3.1 -1.5,5.5 -0.3,3.5 -0.4,5.4 -0.5,5.6 -0.3,1.7 -1.3,2.5 -3,2.5 -1.6,0 -3,-0.5 -4.2,-1.4 -1.1,-0.9 -2.1,-1.3 -2.6,-1.3 -0.7,0 -1.3,0.2 -1.9,0.9 -0.6,0.8 -1,1.4 -1.4,1.8 -0.8,0 -1.7,0 -2.6,0.2 -1,0.1 -1.6,0.2 -2,0.3 -2.6,1.3 -4.4,2 -5.1,2.2 -0.4,0.1 -2,0.1 -5,0.1 l 0,0"
   id="path265"
   style="fill:none;stroke:#383838;stroke-width:2;stroke-linecap:round;stroke-linejoin:round;stroke-miterlimit:4;stroke-opacity:1;stroke-dasharray:none"
   inkscape:connector-curvature="0" />

	<path
   d="m 179.5,94.4 c -1.7,-0.1 -4.7,-0.8 -9.1,-2.1 -4.3,-1.4 -6.4,-2.1 -6.5,-2.1 -0.6,0 -1.2,0.2 -1.8,0.6 -0.9,0.4 -1.3,1.1 -1.3,2 0,2.1 -1,3.8 -3,5 -1.4,0.7 -2.1,1.1 -2.2,1.1 -0.6,0.5 -0.9,1.1 -0.9,1.7 0,0.4 0.1,0.9 0.2,1.6 0.2,0.8 0.3,1.3 0.3,1.8 -0.6,0.1 -1.5,0.7 -2.8,1.8 -1.2,1.2 -1.8,2.1 -1.8,2.6 0,0.3 0.3,0.9 0.7,1.7 0.5,0.9 0.6,1.5 0.6,1.7 -0.1,0.2 -0.3,0.3 -0.8,0.5 -0.5,0.2 -0.8,0.3 -1,0.5 0.2,0.3 0.7,1.2 1.5,2.7 0.5,1.1 0.8,2 0.8,2.7 0,0.8 -1.2,2.8 -3.6,6 l -4.1,5.5 c 0.9,0.7 1.9,1.3 2.9,1.9 0.7,0.5 1.2,0.9 1.3,1.3 0.2,0.3 0.4,0.9 0.4,1.7 0,0.6 -0.1,1.8 -0.1,3.6 0,2.8 -0.1,4.5 -0.1,5.2 -0.5,1.8 -1.5,2.6 -3.1,2.4 -0.9,-0.2 -2.6,0.4 -4.9,1.7 -2.4,1.4 -3.8,2 -4,2 -0.9,0 -1.9,-0.9 -3.1,-2.5 -1.1,-1.8 -2,-2.6 -2.5,-2.6 -0.3,0 -0.6,0.2 -1.1,0.6 -0.6,0.3 -0.9,0.9 -0.9,1.5 0,0.9 0.6,1.9 1.6,3 0.7,0.7 1.3,1.5 2,2.3 0.3,0.6 0.5,1.3 0.6,2.4 0.101,0.6 0.101,1.4 0.101,2.6 0.2,1.8 1,2.7 2.6,2.7 0.9,0 1.8,-0.5 2.3,-1.7 0.5,-1.3 1.3,-1.8 2.2,-1.8 0.8,0 1.4,0.1 1.9,0.4 0.6,0.5 0.9,1.1 0.9,1.8 0,0.3 -0.3,0.8 -0.9,1.3 -0.6,0.6 -0.9,1.3 -0.9,2 0,0 1,1.7 2.9,5.1 2.1,3.4 3.1,5 3.1,5 0,0.3 -0.5,1.3 -1.3,2.9 -0.7,1.5 -1,2.5 -1,3.2 0,1.1 0.5,1.9 1.3,2.5 1,0.8 2,1.6 2.7,2.4"
   id="path269"
   style="fill:none;stroke:#383838;stroke-width:2;stroke-linecap:round;stroke-linejoin:round;stroke-miterlimit:4;stroke-opacity:1;stroke-dasharray:none"
   inkscape:connector-curvature="0" />








	<path
   d="m 184.6,279 c 0.1,-1.2 0.6,-3.1 1.5,-5.8 1.2,-2.7 1.8,-4.8 1.8,-6.4 0,-0.8 -0.4,-1.4 -1,-2 -0.7,-0.6 -0.9,-1.4 -0.9,-2.3 0,-0.4 0,-0.9 0.1,-1.4 0.3,-0.5 0.4,-0.9 0.4,-1 0.3,0 0.6,0.2 1.1,0.5 0.5,0.3 0.9,0.5 1.3,0.5 0.1,0 0.9,-0.7 2.1,-2.1 1.2,-1.4 2,-2.1 2.3,-2.1 0.5,0 1.2,0.5 2.2,1.2 0.8,0.8 1.5,1.2 1.7,1.2 0.8,0 1.6,-1.1 2.6,-3.2 0.9,-2 1.3,-3.7 1.3,-4.9 0,-1.3 -0.3,-2.6 -0.9,-3.8 -0.7,-1.6 -1.9,-2.4 -3.2,-2.4 -0.8,0 -1.7,0.9 -2.5,2.7 -1,1.9 -1.8,2.7 -2.5,2.8 -1.1,-1.1 -1.9,-2.9 -2.4,-5.2 -0.7,-3.4 -1.1,-5.2 -1.4,-5.8 -0.1,-0.3 -1.1,-1.8 -2.9,-4.6 -1.7,-2.4 -2.5,-4 -2.5,-4.8 0,-0.7 0.2,-1.4 0.9,-2.2 0.5,-1 0.8,-1.9 0.8,-2.6 0,-2.2 -0.8,-4.3 -2.5,-6.7 -1.8,-2.3 -3.5,-3.6 -5.2,-3.9 -1.6,-0.2 -3.2,-1.6 -5,-3.9 -2.2,-3 -3.9,-4.9 -5.2,-5.7 -0.6,-0.5 -1.2,-1.4 -1.9,-2.9 -0.7,-1.4 -1.2,-2.3 -1.7,-2.7 -1,-0.7 -2.1,-1.6 -3.3,-2.7 -1.1,-1.2 -1.9,-2 -2.3,-2.8 -0.7,-1.6 -1.9,-3.4 -3.5,-5.4 -2.4,-2.7 -4,-4.6 -4.8,-5.6"
   id="path287"
   style="fill:none;stroke:#383838;stroke-width:2;stroke-linecap:round;stroke-linejoin:round;stroke-miterlimit:4;stroke-opacity:1;stroke-dasharray:none"
   inkscape:connector-curvature="0" />







	<path
   d="m 296.4,185.9 c 0.3,-2.1 0.8,-3.9 1.3,-5.4 0.7,-1.9 1.9,-3.6 3.5,-5.3 2,-2 3.1,-3.2 3.5,-3.7 1,-1.5 1.5,-3.6 1.5,-6.1 0,-0.9 -0.2,-1.5 -0.7,-2.2 -0.4,-0.5 -0.7,-1.2 -0.7,-2.2 0,-0.6 0.4,-1.5 1,-2.8 0.6,-1.2 0.9,-2 0.9,-2.1 0,-0.4 0,-0.7 -0.101,-0.8 -0.1,-0.1 -0.2,-0.2 -0.399,-0.3 -0.9,0.3 -2,0.2 -3.1,-0.4 -0.8,-0.3 -1.3,-0.6 -1.7,-1.1"
   id="path303"
   style="fill:none;stroke:#383838;stroke-width:2;stroke-linecap:round;stroke-linejoin:round;stroke-miterlimit:4;stroke-opacity:1;stroke-dasharray:none"
   inkscape:connector-curvature="0" />





	<path
   d="m 296.6,192.6 c -0.4,-0.5 -0.5,-0.9 -0.5,-1.4 0,-2 0.1,-3.7 0.3,-5.3"
   id="path315"
   style="fill:none;stroke:#383838;stroke-width:2;stroke-linecap:round;stroke-linejoin:round;stroke-miterlimit:4;stroke-opacity:1;stroke-dasharray:none"
   inkscape:connector-curvature="0" />
	<path
   d="m 301.2,221.1 c -0.4,-0.3 -0.7,-1 -0.9,-1.8 -0.4,-1.2 -0.5,-2.4 -0.5,-3.7 0,-0.9 0.3,-2 0.7,-3.2 0.4,-1.3 0.7,-2 0.7,-2.3 0,-2.7 -0.4,-4.5 -1.1,-5.1 -0.4,-0.5 -2,-1.2 -4.9,-2.2 -0.6,-0.3 -1,-0.7 -1.4,-1.3 -0.2,-0.6 -0.4,-1.4 -0.5,-2.5 0,-1.5 -0.5,-2.4 -1.6,-2.5 -0.6,-0.1 -0.9,-0.3 -1.1,-0.4 -0.3,-0.2 -0.4,-0.6 -0.4,-1.4 0,-0.7 0.2,-1.5 0.9,-2 0.7,-0.7 1.5,-0.9 2.5,-0.9 0.3,0 0.9,0.1 1.6,0.4 0.5,0.3 1,0.3 1.4,0.4"
   id="path317"
   style="fill:none;stroke:#5e5e5e;stroke-linecap:round;stroke-linejoin:round;stroke-opacity:1"
   inkscape:connector-curvature="0" />










	<path
   d="m 237.6,309.8 c 2.9,-2.4 4.4,-4.2 4.4,-5.2 0,-0.6 -0.6,-1.5 -1.7,-2.7 -1.1,-1.2 -1.6,-2.1 -1.6,-2.8 0,-1.3 0.6,-2.2 1.9,-2.7 0.9,-0.3 2.4,-0.5 4.7,-0.5 0.1,0 0.9,0.1 2.3,0.2 1.4,0.3 2.6,0.3 3.6,0.3 3,-0.1 4.6,-1.3 4.6,-3.5 0,-0.7 -0.2,-1.3 -0.5,-2"
   id="path339"
   style="fill:none;stroke:#5e5e5e;stroke-linecap:round;stroke-linejoin:round;stroke-opacity:1"
   inkscape:connector-curvature="0" />
	<path
   d="m 267.2,304.1 c -0.3,-0.5 -0.6,-1 -0.9,-1.6 -1.2,-2.7 -2.1,-4.7 -2.7,-5.9 -1.2,-2.3 -2.4,-3.8 -4,-4.7 -1.2,-0.6 -2.6,-1 -4.3,-1"
   id="path341"
   style="fill:none;stroke:#5e5e5e;stroke-linecap:round;stroke-linejoin:round;stroke-opacity:1"
   inkscape:connector-curvature="0" />

	<path
   d="m 218.3,310.5 c 0.1,-0.3 0.2,-0.5 0.2,-0.7 0.3,-1.3 0.5,-2.2 0.8,-2.7 0.5,-0.7 1.2,-1 2.2,-1 0,0 2.3,0.8 6.9,2.7 4.6,1.8 6.9,2.8 7.1,2.8 0.8,-0.7 1.5,-1.2 2.1,-1.8"
   id="path345"
   style="fill:none;stroke:#5e5e5e;stroke-linecap:round;stroke-linejoin:round;stroke-opacity:1"
   inkscape:connector-curvature="0" />
	<path
   d="m 271.2,306.9 c -0.1,0.2 -0.2,0.3 -0.3,0.5 -1.3,-0.8 -2.6,-1.8 -3.7,-3.3"
   id="path347"
   style="fill:none;stroke:#5e5e5e;stroke-linecap:round;stroke-linejoin:round;stroke-opacity:1"
   inkscape:connector-curvature="0" />






	<path
   d="m 313.8,284.4 c -0.8,0.7 -1.5,1.4 -2,2.2 -0.399,0.8 -0.7,2 -0.899,3.7 -0.101,1.3 -0.601,2.3 -1.2,2.8 -0.9,0.6 -2.8,1 -5.5,1 -1.9,0 -3.4,-0.4 -4.7,-1 -0.7,-0.4 -1.7,-1.1 -2.8,-2.2 -1.1,-1 -2.2,-1.8 -3,-2.3 -1.5,-0.6 -3.3,-0.9 -5.4,-0.9 -0.5,0.2 -1.1,0.3 -1.7,0.5 -1.2,0.6 -2,0.9 -2.4,1.3 l -0.1,-0.1"
   id="path361"
   style="fill:none;stroke:#5e5e5e;stroke-linecap:round;stroke-linejoin:round;stroke-opacity:1"
   inkscape:connector-curvature="0" />

	<path
   d="m 283.93108,289.65338 c -0.8,0.8 -1.23108,1.34662 -2.03108,2.24662 -2.1,2.5 -4,5.1 -5.8,8 -1.8,2.7 -3.3,5.1 -4.9,7"
   id="path365"
   style="fill:none;stroke:#5e5e5e;stroke-linecap:round;stroke-linejoin:round;stroke-opacity:1"
   sodipodi:nodetypes="cccc"
   inkscape:connector-curvature="0" />

	<path
   d="m 309.2,333.8 c -0.101,0.1 -0.101,0.1 -0.2,0.1 v -0.3 c -0.9,-0.2 -1.8,-0.5 -2.4,-1.2 -0.5,-0.5 -0.8,-1 -0.8,-1.3 0,-0.3 0.2,-1 0.6,-1.9 0.5,-0.9 0.7,-1.6 0.7,-2.3 0,-0.4 -0.199,-1.1 -0.399,-2 -0.3,-1 -0.5,-1.8 -0.5,-2.1 0,-0.5 0.1,-0.8 0.2,-1 0.2,-0.4 0.3,-0.6 0.3,-0.6 0.5,-0.1 1.2,0 2.1,0.6 1,0.5 1.5,0.8 1.8,0.8 0.101,0 1.4,-1.1 3.801,-3.2 2.5,-2.2 3.8,-3.3 3.8,-3.5 0,-0.2 -0.4,-1 -1.101,-2.5 -0.8,-1.5 -1.199,-3 -1.199,-4.2 0,-0.1 0,-0.3 0,-0.4"
   id="path369"
   style="fill:none;stroke:#5e5e5e;stroke-linecap:round;stroke-linejoin:round;stroke-opacity:1"
   inkscape:connector-curvature="0" />

	<path
   d="m 213.5,366.7 c 0,-0.101 0,-0.3 -0.1,-0.5 -1.2,-3.101 -2.9,-5.9 -5,-8.4 -1.9,-2.2 -4.4,-4.5 -7.6,-6.899 -3.6,-2.5 -6.3,-4.5 -8,-5.9 -3,-2.4 -5.3,-4.8 -6.8,-7.3 -4.8,-7.2 -8.1,-12.6 -10.1,-16 -5.5,-9.5 -8.3,-15.6 -8.3,-18.6 0,-0.3 0.9,-1.5 2.8,-3.5 2,-2.1 3.4,-3.2 4.1,-3.2 0.4,0 1,0 2,0.2 0.9,0.2 1.6,0.3 2.1,0.3 0.1,-2.2 0.5,-3.5 1.4,-4.2 0.4,-0.5 1.2,-0.6 2.4,-0.5 1.2,0.1 2.1,0 2.5,-0.1 0.7,-0.5 1.1,-1.5 1.1,-3.3 0,-0.9 -0.2,-2.4 -0.7,-4.6 -0.5,-2.1 -0.8,-3.8 -0.8,-5 0,-0.1 0.1,-0.1 0.1,-0.2"
   id="path373"
   style="fill:none;stroke:#383838;stroke-width:2;stroke-linecap:round;stroke-linejoin:round;stroke-miterlimit:4;stroke-opacity:1;stroke-dasharray:none"
   inkscape:connector-curvature="0" />
	<path
   d="m 206.1,301.6 c -0.8,-1.1 -1.8,-2.3 -3,-3.6 -2.6,-2.9 -4.6,-5.2 -5.7,-7.1 -0.2,-0.3 -0.6,-0.6 -1.2,-1 -1.2,-0.8 -1.7,-1.1 -1.9,-1.3 -1.5,-1.1 -2.2,-2.4 -1.9,-3.7 0.2,-2 -0.4,-3.3 -1.6,-4 -1.8,-0.6 -3.3,-1.3 -4.4,-1.9 h -1.8"
   id="path375"
   style="fill:none;stroke:#5e5e5e;stroke-linecap:round;stroke-linejoin:round;stroke-opacity:1"
   inkscape:connector-curvature="0" />



	<path
   d="m 205.74028,303.95833 c 0.1,3 1.95972,4.44167 5.25972,5.24167 0.2,0 1.7,0.3 4.5,0.7 1,0.2 2,0.5 2.8,0.6"
   id="path383"
   style="fill:none;stroke:#5e5e5e;stroke-linecap:round;stroke-linejoin:round;stroke-opacity:1"
   sodipodi:nodetypes="cccc"
   inkscape:connector-curvature="0" />
	<path
   d="m 206.1,301.6 c -0.1,0.6 -0.3,1.3 -0.3,2"
   id="path385"
   style="fill:none;stroke:#5e5e5e;stroke-linecap:round;stroke-linejoin:round;stroke-opacity:1"
   inkscape:connector-curvature="0" />

	<path
   d="m 213.9,367.9 c -0.1,0.1 -0.1,0.199 -0.2,0.3"
   id="path389"
   style="fill:none;stroke:#f9f9f9;stroke-linecap:round;stroke-linejoin:round"
   inkscape:connector-curvature="0" />
	<path
   d="m 213.7,368.2 c -0.1,-0.601 -0.2,-1.101 -0.2,-1.5"
   id="path391"
   style="fill:none;stroke:#f9f9f9;stroke-linecap:round;stroke-linejoin:round"
   inkscape:connector-curvature="0" />

	<path
   d="m 214.2,391.6 c 0.2,-0.399 0.3,-0.699 0.5,-1 0.5,-1.199 0.6,-3.399 0.6,-6.199 0,-2.4 -0.3,-5.4 -0.8,-9 -0.5,-2.801 -0.7,-7.53333 -0.8,-9.53333"
   id="path395"
   style="fill:none;stroke:#383838;stroke-width:2;stroke-linecap:round;stroke-linejoin:round;stroke-miterlimit:4;stroke-opacity:1;stroke-dasharray:none"
   inkscape:connector-curvature="0"
   sodipodi:nodetypes="ccscc" />

	<path
   d="m 225.2,420.3 c -4.1,-3.7 -7.4,-7.898 -9.9,-12.5 -2.7,-5.1 -4.1,-8.5 -4.1,-10.2 0,-2 0.3,-3.5 0.7,-4.199 0.2,-0.4 0.6,-0.7 1.3,-1 0.5,-0.301 0.8,-0.5 1,-0.801"
   id="path399"
   style="fill:none;stroke:#383838;stroke-width:2;stroke-linecap:round;stroke-linejoin:round;stroke-miterlimit:4;stroke-opacity:1;stroke-dasharray:none"
   inkscape:connector-curvature="0" />
	<path
   d="m 250.2,419.8 c -0.2,-0.2 -0.5,-0.2 -0.9,-0.398 -1.3,-0.302 -2.1,-0.4 -2.5,-0.4 -0.8,0 -1.8,0.4 -3,1.1 -1.3,0.802 -2.1,1.302 -2.8,1.302 -1.1,0 -2.1,-0.602 -3,-1.802 -0.8,-1 -1.8,-1.6 -3,-1.5 l 0.2,2 c 0.1,0.9 0,1.5 -0.2,2.102 h -0.8 c -1,-1.102 -1.9,-1.8 -2.8,-2.102 -0.4,-0.1 -1.5,-0.198 -3.2,-0.198 -1.2,0 -2.2,0.198 -3,0.398"
   id="path401"
   style="fill:none;stroke:#5e5e5e;stroke-linecap:round;stroke-linejoin:round;stroke-opacity:1"
   inkscape:connector-curvature="0" />
	<path
   d="m 317.2,338.3 c -0.5,-0.5 -1.101,-1.1 -1.8,-1.6 -2.7,-2.3 -4.301,-3.6 -4.801,-3.6 -0.3,0 -0.5,0.1 -0.899,0.3 -0.101,0.1 -0.4,0.2 -0.5,0.4"
   id="path403"
   style="fill:none;stroke:#5e5e5e;stroke-linecap:round;stroke-linejoin:round;stroke-opacity:1"
   inkscape:connector-curvature="0" />







































	<path
   d="m 270.6,378.6 c 0.1,0 0.2,0 0.3,0 0.5,0 1.2,0 1.7,0"
   id="path483"
   style="fill:none;stroke:#f9f9f9;stroke-linecap:round;stroke-linejoin:round"
   inkscape:connector-curvature="0" />
	<path
   d="m 249.8,389.1 c 0,-0.199 -0.1,-0.399 -0.1,-0.5 0,-1.3 2.1,-3.3 6.2,-6.1 l 6.2,-3.9 c 1.3,-0.1 2.8,-0.199 4.6,-0.1 0.9,0.1 2.2,0.1 3.9,0.1"
   id="path485"
   style="fill:none;stroke:#383838;stroke-width:2;stroke-linecap:round;stroke-linejoin:round;stroke-miterlimit:4;stroke-opacity:1;stroke-dasharray:none"
   inkscape:connector-curvature="0" />


	<path
   d="m 250.2,419.8 c 0,-0.2 0,-0.2 0,-0.398 0,-4.5 1,-8.602 3,-12.2 1,-1.602 1.6,-2.8 2,-3.4 0.6,-1.2 1,-2.2 1,-3 0,-1 -0.3,-2 -0.9,-3.1 -0.5,-1.102 -0.9,-2.4 -1,-3.9 0,-0.399 -0.8,-1.2 -2.3,-2.399 -1.1,-0.801 -1.8,-1.601 -2.2,-2.301"
   id="path491"
   style="fill:none;stroke:#383838;stroke-width:2;stroke-linecap:round;stroke-linejoin:round;stroke-miterlimit:4;stroke-opacity:1;stroke-dasharray:none"
   inkscape:connector-curvature="0" />

	<path
   d="m 295.4,381.7 c 0.3,0.2 0.7,0.8 1.2,1.6 -1.6,2.3 -3.2,6.3 -4.7,12.101 0,0.3 0.3,0.899 0.8,1.8 0.5,1 0.6,1.7 0.6,2.2 0,0.8 -0.2,1.698 -0.8,2.5 -0.7,0.898 -0.9,1.5 -0.9,2 0,1.698 0.5,3 1.6,4.198 1,1.2 1.5,2 1.5,2.5 0,0.5 -0.5,1.302 -1.5,2.2 -1.1,0.8 -1.6,1.8 -1.6,3 0,0.5 0.1,0.9 0.2,1.3 0.1,0.102 0.4,0.5 0.7,1 1.7,-0.698 2.9,-1.198 3.6,-1.5"
   id="path495"
   style="fill:none;stroke:#383838;stroke-width:2;stroke-linecap:round;stroke-linejoin:round;stroke-miterlimit:4;stroke-opacity:1;stroke-dasharray:none"
   inkscape:connector-curvature="0" />
	<path
   d="m 290.9,380.3 c 0.4,0.101 0.8,0.3 1.2,0.3 0.1,0 0.3,0.101 0.5,0.2 0.2,-0.2 0.5,-0.2 0.7,-0.2 0.7,0 1.3,0.301 1.9,0.7 l 0.2,0.4"
   id="path497"
   style="fill:none;stroke:#f9f9f9;stroke-linecap:round;stroke-linejoin:round"
   inkscape:connector-curvature="0" />
	<path
   d="m 270.6,378.6 c 1.2,-0.199 4.5,-0.5 5.5,-1 1.6,-0.8 2.6,-1.199 2.8,-1.199 0.1,0 2.2,0.699 6.3,2 2.4,0.8 9.63333,3.16667 11.03333,3.56567"
   id="path499"
   style="fill:none;stroke:#383838;stroke-width:2;stroke-linecap:round;stroke-linejoin:round;stroke-miterlimit:4;stroke-opacity:1;stroke-dasharray:none"
   inkscape:connector-curvature="0"
   sodipodi:nodetypes="csscc" />

	<path
   d="m 296.1,416.6 0.5,-0.198 c 0.4,-0.102 1.8,-0.2 4.3,-0.2 3.1,0 6.2,0.7 9.2,2.2 0.7,0.3 1.801,0.698 3.101,1.398 1,0.4 1.8,0.602 2.5,0.602 0.5,0 2.2,-0.5 5.1,-1.4 3.5,-1.1 9.73333,-2.23333 12.03333,-2.93333"
   id="path503"
   style="fill:none;stroke:#383838;stroke-width:2;stroke-linecap:round;stroke-linejoin:round;stroke-miterlimit:4;stroke-opacity:1;stroke-dasharray:none"
   inkscape:connector-curvature="0"
   sodipodi:nodetypes="ccsccscc" />
	<path
   d="m 481.2,250 c -0.3,-0.6 -0.7,-1.2 -1.102,-1.6 -1.1,-0.8 -2.5,-0.8 -4.398,-0.2 0,-2 -1.102,-4 -3.2,-6.1 -1.3,-1.3 -2,-2.1 -2.2,-2.4 -0.7,-0.8 -1,-1.6 -1,-2.3 0,-0.8 0.3,-1.8 1.102,-3 0.698,-1.3 1.198,-2.3 1.198,-3 0,-0.3 -0.5,-0.9 -1.198,-1.8 -0.802,-1 -1.102,-1.6 -1.102,-1.8 0,-0.3 0,-0.6 0.102,-0.7"
   id="path505"
   style="fill:none;stroke:#383838;stroke-width:2;stroke-linecap:round;stroke-linejoin:round;stroke-miterlimit:4;stroke-opacity:1;stroke-dasharray:none"
   inkscape:connector-curvature="0" />





















	<path
   d="m 331.6,233.1 c 0.102,-0.2 0.2,-0.3 0.302,-0.5 0.698,-0.7 0.898,-1.4 0.898,-2.1 v -0.1"
   id="path549"
   style="fill:none;stroke:#5e5e5e;stroke-linecap:round;stroke-linejoin:round;stroke-opacity:1"
   inkscape:connector-curvature="0" />
	<path
   d="m 313.8,284.4 c 0,-0.3 -0.1,-0.6 -0.2,-0.8 0.601,-0.3 1.2,-0.9 1.801,-1.8 0.6,-0.9 0.899,-1.5 0.899,-1.9 0,-0.9 -0.2,-1.6 -0.5,-2 -0.2,-0.1 -0.6,-0.3 -1.3,-0.7 -1.3,-0.4 -1.9,-1.9 -1.9,-4.3 0,-1.9 0.5,-3.4 1.5,-4.5 0.4,-0.6 0.7,-1 0.9,-1.2 0.3,-0.4 0.4,-0.8 0.4,-1.3 0,0 -0.4,-1 -1.301,-2.9 -1,-1.9 -1.5,-3.3 -1.5,-4.4 0,-5 1.7,-10.3 5.301,-15.8 l 3.699,-5.4 c 1.102,-1.5 1.602,-2.5 1.602,-3.2 l -0.602,-1.3 c -0.5,-0.9 -0.8,-1.5 -0.8,-1.7 h 2.4 c 0.898,0.5 1.898,1 3.1,1.7 0.9,0.5 2,0.7 3.3,0.7 0.2,0 0.602,-0.2 1,-0.5"
   id="path551"
   style="fill:none;stroke:#5e5e5e;stroke-linecap:round;stroke-linejoin:round;stroke-opacity:1"
   inkscape:connector-curvature="0" />

	<path
   d="m 315.4,297.1 c -0.101,-2.3 -0.2,-4.1 -0.2,-5.3 -0.3,-2.7 -0.7,-5.2 -1.4,-7.4"
   id="path555"
   style="fill:none;stroke:#5e5e5e;stroke-linecap:round;stroke-linejoin:round;stroke-opacity:1"
   inkscape:connector-curvature="0" />
	<path
   d="m 315.9,308.8 c 0,-1 -0.101,-2.4 -0.2,-3.9 -0.2,-2.4 -0.3,-3.8 -0.3,-4.4 0,-1.3 0,-2.4 0,-3.4"
   id="path557"
   style="fill:none;stroke:#5e5e5e;stroke-linecap:round;stroke-linejoin:round;stroke-opacity:1"
   inkscape:connector-curvature="0" />








	<path
   d="m 365.9,348.8 c -0.2,0 -0.302,-0.1 -0.5,-0.1 -1.2,0 -2.4,0.2 -3.602,0.7 -1.1,0.5 -2.398,0.699 -3.6,0.699 -0.9,0 -3.3,-0.6 -7.102,-1.8"
   id="path575"
   style="fill:none;stroke:#5e5e5e;stroke-linecap:round;stroke-linejoin:round;stroke-opacity:1"
   inkscape:connector-curvature="0" />
	<path
   d="m 385.3,348.7 c -0.7,-0.3 -1.5,-0.4 -2.1,-0.4 -0.8,0 -2.4,0.3 -4.8,0.7 -2.5,0.4 -4.302,0.6 -5.7,0.6 -0.5,0 -1.602,-0.1 -3.7,-0.399 -1.5,-0.3 -2.6,-0.3 -3.1,-0.4"
   id="path577"
   style="fill:none;stroke:#5e5e5e;stroke-linecap:round;stroke-linejoin:round;stroke-opacity:1"
   inkscape:connector-curvature="0" />
	<path
   d="m 360,386.1 c -0.1,-0.5 -0.1,-0.899 -0.1,-1.199 -0.102,-1.7 -0.102,-3.101 0,-4.301 0.3,-2.5 1,-3.699 2.3,-3.699 0.2,0 2,0.1 5.1,0.3 3.102,0 4.602,-0.7 4.602,-2.2 0,-0.2 -0.2,-0.7 -0.7,-1.4 -0.4,-0.6 -0.602,-1 -0.602,-1.399 0,-0.8 1.102,-2.2 3.2,-4.3 2.602,-2.7 4.4,-5 5.4,-7.101 1.2,-2.899 2.3,-5.1 3.1,-6.8 1,-2.1 2,-3.9 3,-5.3"
   id="path579"
   style="fill:none;stroke:#383838;stroke-width:2;stroke-linecap:round;stroke-linejoin:round;stroke-miterlimit:4;stroke-opacity:1;stroke-dasharray:none"
   inkscape:connector-curvature="0" />
	<path
   d="m 385.3,348.7 c 0.5,-0.601 0.8,-1.2 1.3,-1.8 2.602,-2.9 7.302,-5.2 14,-6.8"
   id="path581"
   style="fill:none;stroke:#383838;stroke-width:2;stroke-linecap:round;stroke-linejoin:round;stroke-miterlimit:4;stroke-opacity:1;stroke-dasharray:none"
   inkscape:connector-curvature="0" />
	<path
   d="m 351.1,348.3 c -0.698,-0.2 -1.3,-0.399 -1.898,-0.6 -5.102,-1.7 -8.102,-2.9 -9,-3.6 0,0 0.398,-0.5 1,-1.5 0.6,-0.9 0.898,-1.7 0.898,-2.2 0,-0.8 -0.3,-1.4 -1,-1.8 -0.398,-0.2 -1.198,-0.4 -2.3,-0.4 -1.2,0 -2.5,0.4 -3.6,1.4 -1.3,0.9 -2.3,1.3 -3.3,1.3 -1.302,0 -2.2,-0.7 -2.802,-2.3 -0.3,-0.9 -0.5,-1.5 -0.8,-1.7 -0.3,-0.5 -0.7,-0.8 -1.398,-1 -0.5,-0.1 -1.102,0 -2.102,0.2 -1,0.1 -1.6,0.2 -2,0.2 -0.5,-0.2 -0.898,-0.5 -1.1,-1.3 -0.3,-0.6 -0.8,-0.9 -1.5,-0.9 -1,0 -2,1.1 -2.8,3.5 -0.101,0.3 -0.2,0.5 -0.2,0.7"
   id="path583"
   style="fill:none;stroke:#5e5e5e;stroke-linecap:round;stroke-linejoin:round;stroke-opacity:1"
   inkscape:connector-curvature="0" />






</g>
</svg>